<svg xmlns="http://www.w3.org/2000/svg" xmlns:xlink="http://www.w3.org/1999/xlink" width="500" zoomAndPan="magnify" viewBox="0 0 375 374.999991" height="500" preserveAspectRatio="xMidYMid meet" version="1.0"><defs><g/><clipPath id="181aca37aa"><path d="M 37.5 190.0625 L 204 190.0625 L 204 260.5625 L 37.5 260.5625 Z M 37.5 190.0625 " clip-rule="nonzero"/></clipPath><clipPath id="b800d62bb9"><path d="M 193.039062 150.546875 L 236.539062 150.546875 L 236.539062 194.796875 L 193.039062 194.796875 Z M 193.039062 150.546875 " clip-rule="nonzero"/></clipPath><clipPath id="bad29632bf"><path d="M 118 214 L 132 214 L 132 227 L 118 227 Z M 118 214 " clip-rule="nonzero"/></clipPath><clipPath id="f67d741aa8"><path d="M 72.316406 93.464844 L 192.820312 101.125 L 184.351562 234.355469 L 63.847656 226.695312 Z M 72.316406 93.464844 " clip-rule="nonzero"/></clipPath><clipPath id="145faebf24"><path d="M 72.316406 93.464844 L 192.820312 101.125 L 184.351562 234.355469 L 63.847656 226.695312 Z M 72.316406 93.464844 " clip-rule="nonzero"/></clipPath><clipPath id="4ce171c03d"><path d="M 68 97 L 190 97 L 190 195 L 68 195 Z M 68 97 " clip-rule="nonzero"/></clipPath><clipPath id="c87dede542"><path d="M 72.316406 93.464844 L 192.820312 101.125 L 184.351562 234.355469 L 63.847656 226.695312 Z M 72.316406 93.464844 " clip-rule="nonzero"/></clipPath><clipPath id="5d6f3d460e"><path d="M 72.316406 93.464844 L 192.820312 101.125 L 184.351562 234.355469 L 63.847656 226.695312 Z M 72.316406 93.464844 " clip-rule="nonzero"/></clipPath><clipPath id="485a0b5b7d"><path d="M 91 180 L 162 180 L 162 229 L 91 229 Z M 91 180 " clip-rule="nonzero"/></clipPath><clipPath id="4fd4760ef6"><path d="M 72.316406 93.464844 L 192.820312 101.125 L 184.351562 234.355469 L 63.847656 226.695312 Z M 72.316406 93.464844 " clip-rule="nonzero"/></clipPath><clipPath id="60ba188825"><path d="M 72.316406 93.464844 L 192.820312 101.125 L 184.351562 234.355469 L 63.847656 226.695312 Z M 72.316406 93.464844 " clip-rule="nonzero"/></clipPath></defs><g clip-path="url(#181aca37aa)"><path fill="#7aba78" d="M 72.808594 256.164062 C 55.6875 256.164062 41.8125 242.289062 41.8125 225.167969 C 41.8125 208.050781 55.6875 194.175781 72.808594 194.175781 C 82.0625 194.175781 90.367188 198.234375 96.042969 204.664062 L 91.621094 204.664062 C 86.667969 200.117188 80.0625 197.335938 72.808594 197.335938 C 57.4375 197.335938 44.972656 209.796875 44.972656 225.167969 C 44.972656 240.539062 57.4375 253.003906 72.808594 253.003906 C 80.199219 253.003906 86.914062 250.117188 91.898438 245.417969 L 96.269531 245.417969 C 90.585938 251.996094 82.183594 256.164062 72.808594 256.164062 Z M 203.507812 241.148438 L 90.964844 241.148438 C 86.53125 246.179688 80.039062 249.359375 72.808594 249.359375 C 59.449219 249.359375 48.617188 238.527344 48.617188 225.167969 C 48.617188 211.808594 59.449219 200.980469 72.808594 200.980469 C 77.523438 200.980469 81.921875 202.332031 85.640625 204.664062 C 87.625 205.910156 89.421875 207.4375 90.964844 209.191406 L 104.074219 209.191406 C 103.265625 207.609375 102.335938 206.097656 101.304688 204.664062 C 94.929688 195.820312 84.542969 190.0625 72.808594 190.0625 C 53.417969 190.0625 37.699219 205.78125 37.699219 225.167969 C 37.699219 244.558594 53.417969 260.277344 72.808594 260.277344 C 84.65625 260.277344 95.128906 254.40625 101.488281 245.417969 L 203.507812 245.417969 L 203.507812 241.148438 " fill-opacity="1" fill-rule="nonzero"/></g><path fill="#f3ca52" d="M 202.328125 171.722656 C 202.328125 171.777344 202.320312 171.828125 202.320312 171.875 C 202.316406 171.941406 202.3125 172.007812 202.3125 172.078125 C 202.308594 172.15625 202.308594 172.222656 202.300781 172.300781 L 202.300781 172.605469 C 202.300781 172.210938 202.320312 171.816406 202.355469 171.421875 C 202.34375 171.519531 202.335938 171.621094 202.328125 171.722656 Z M 202.328125 171.722656 " fill-opacity="1" fill-rule="nonzero"/><path fill="#f3ca52" d="M 202.308594 173.054688 C 202.3125 173.152344 202.316406 173.238281 202.320312 173.339844 C 202.320312 173.378906 202.328125 173.429688 202.328125 173.472656 C 202.332031 173.550781 202.339844 173.625 202.347656 173.699219 C 202.316406 173.335938 202.300781 172.972656 202.300781 172.605469 L 202.300781 172.84375 C 202.300781 172.914062 202.308594 172.984375 202.308594 173.054688 Z M 202.308594 173.054688 " fill-opacity="1" fill-rule="nonzero"/><path fill="#f3ca52" d="M 202.464844 170.558594 C 202.449219 170.632812 202.4375 170.710938 202.425781 170.792969 C 202.414062 170.867188 202.40625 170.949219 202.394531 171.03125 C 202.394531 171.042969 202.394531 171.058594 202.394531 171.070312 C 202.417969 170.886719 202.441406 170.703125 202.472656 170.519531 C 202.46875 170.53125 202.464844 170.542969 202.464844 170.558594 Z M 202.464844 170.558594 " fill-opacity="1" fill-rule="nonzero"/><path fill="#f3ca52" d="M 202.449219 174.570312 C 202.464844 174.679688 202.484375 174.785156 202.503906 174.886719 C 202.484375 174.765625 202.464844 174.644531 202.445312 174.519531 C 202.445312 174.542969 202.445312 174.558594 202.449219 174.570312 Z M 202.449219 174.570312 " fill-opacity="1" fill-rule="nonzero"/><path fill="#f3ca52" d="M 202.582031 175.285156 C 202.582031 175.292969 202.585938 175.300781 202.589844 175.308594 C 202.582031 175.277344 202.574219 175.25 202.570312 175.21875 C 202.574219 175.238281 202.578125 175.261719 202.582031 175.285156 Z M 202.582031 175.285156 " fill-opacity="1" fill-rule="nonzero"/><path fill="#f3ca52" d="M 202.542969 170.125 C 202.5625 170.019531 202.585938 169.910156 202.609375 169.808594 C 202.582031 169.910156 202.558594 170.019531 202.542969 170.125 Z M 202.542969 170.125 " fill-opacity="1" fill-rule="nonzero"/><path fill="#f3ca52" d="M 202.625 169.734375 C 202.625 169.738281 202.621094 169.742188 202.621094 169.75 C 202.628906 169.714844 202.636719 169.683594 202.644531 169.648438 C 202.636719 169.679688 202.628906 169.703125 202.625 169.734375 Z M 202.625 169.734375 " fill-opacity="1" fill-rule="nonzero"/><path fill="#f3ca52" d="M 202.710938 169.378906 C 202.707031 169.40625 202.699219 169.433594 202.695312 169.460938 C 202.703125 169.414062 202.714844 169.367188 202.726562 169.324219 C 202.722656 169.34375 202.714844 169.359375 202.710938 169.378906 Z M 202.710938 169.378906 " fill-opacity="1" fill-rule="nonzero"/><path fill="#f3ca52" d="M 202.8125 176.199219 L 202.839844 176.289062 C 202.8125 176.195312 202.785156 176.101562 202.757812 176.007812 C 202.777344 176.074219 202.792969 176.136719 202.8125 176.199219 Z M 202.8125 176.199219 " fill-opacity="1" fill-rule="nonzero"/><path fill="#f3ca52" d="M 202.777344 169.144531 C 202.796875 169.0625 202.820312 168.984375 202.84375 168.90625 C 202.832031 168.933594 202.824219 168.960938 202.816406 168.988281 C 202.804688 169.039062 202.789062 169.09375 202.777344 169.144531 Z M 202.777344 169.144531 " fill-opacity="1" fill-rule="nonzero"/><path fill="#f3ca52" d="M 202.929688 168.640625 C 202.96875 168.507812 203.015625 168.375 203.0625 168.246094 C 203.050781 168.269531 203.042969 168.292969 203.035156 168.320312 C 203 168.425781 202.960938 168.53125 202.929688 168.640625 Z M 202.929688 168.640625 " fill-opacity="1" fill-rule="nonzero"/><path fill="#f3ca52" d="M 203.0625 168.246094 C 203.074219 168.214844 203.082031 168.183594 203.097656 168.152344 C 203.09375 168.15625 203.089844 168.160156 203.089844 168.164062 C 203.082031 168.191406 203.074219 168.21875 203.0625 168.246094 Z M 203.0625 168.246094 " fill-opacity="1" fill-rule="nonzero"/><path fill="#f3ca52" d="M 205.617188 181.195312 C 205.570312 181.144531 205.523438 181.09375 205.480469 181.042969 C 205.5 181.066406 205.519531 181.085938 205.535156 181.105469 C 205.5625 181.136719 205.589844 181.167969 205.617188 181.195312 Z M 205.617188 181.195312 " fill-opacity="1" fill-rule="nonzero"/><path fill="#f3ca52" d="M 207.070312 182.554688 C 207.046875 182.535156 207.023438 182.515625 207 182.496094 C 207.007812 182.503906 207.015625 182.511719 207.023438 182.515625 Z M 207.070312 182.554688 " fill-opacity="1" fill-rule="nonzero"/><path fill="#f3ca52" d="M 210.671875 184.53125 C 210.636719 184.519531 210.601562 184.507812 210.566406 184.496094 C 210.574219 184.5 210.585938 184.503906 210.59375 184.507812 C 210.621094 184.515625 210.644531 184.523438 210.671875 184.53125 Z M 210.671875 184.53125 " fill-opacity="1" fill-rule="nonzero"/><path fill="#f3ca52" d="M 211.632812 184.820312 C 211.550781 184.800781 211.46875 184.777344 211.390625 184.757812 C 211.433594 184.773438 211.472656 184.78125 211.519531 184.792969 C 211.554688 184.800781 211.597656 184.8125 211.632812 184.820312 Z M 211.632812 184.820312 " fill-opacity="1" fill-rule="nonzero"/><path fill="#f3ca52" d="M 212 184.910156 C 211.945312 184.898438 211.894531 184.886719 211.839844 184.871094 C 211.863281 184.878906 211.882812 184.886719 211.90625 184.890625 C 211.9375 184.898438 211.96875 184.902344 212 184.910156 Z M 212 184.910156 " fill-opacity="1" fill-rule="nonzero"/><path fill="#f3ca52" d="M 212.109375 184.933594 C 212.121094 184.933594 212.128906 184.9375 212.136719 184.9375 C 212.125 184.9375 212.109375 184.933594 212.097656 184.929688 C 212.101562 184.929688 212.105469 184.933594 212.109375 184.933594 Z M 212.109375 184.933594 " fill-opacity="1" fill-rule="nonzero"/><path fill="#f3ca52" d="M 212.160156 184.945312 C 212.183594 184.949219 212.207031 184.953125 212.230469 184.957031 C 212.199219 184.953125 212.167969 184.945312 212.136719 184.9375 C 212.144531 184.941406 212.15625 184.941406 212.160156 184.945312 Z M 212.160156 184.945312 " fill-opacity="1" fill-rule="nonzero"/><path fill="#f3ca52" d="M 212.53125 185.015625 C 212.550781 185.019531 212.5625 185.023438 212.582031 185.027344 C 212.546875 185.019531 212.507812 185.011719 212.476562 185.003906 C 212.496094 185.007812 212.511719 185.015625 212.53125 185.015625 Z M 212.53125 185.015625 " fill-opacity="1" fill-rule="nonzero"/><path fill="#f3ca52" d="M 213.066406 185.097656 C 213.054688 185.097656 213.039062 185.09375 213.023438 185.089844 C 213.023438 185.089844 213.019531 185.089844 213.015625 185.089844 C 213.015625 185.089844 213.019531 185.089844 213.023438 185.09375 C 213.039062 185.09375 213.054688 185.097656 213.066406 185.097656 Z M 213.066406 185.097656 " fill-opacity="1" fill-rule="nonzero"/><path fill="#f3ca52" d="M 218.707031 184.507812 C 218.714844 184.503906 218.71875 184.5 218.730469 184.496094 C 218.699219 184.507812 218.667969 184.519531 218.640625 184.527344 C 218.660156 184.519531 218.683594 184.511719 218.707031 184.507812 Z M 218.707031 184.507812 " fill-opacity="1" fill-rule="nonzero"/><g clip-path="url(#b800d62bb9)"><path fill="#f3ca52" d="M 236.292969 171.390625 L 236.292969 150.550781 L 231.945312 150.550781 L 231.945312 153.484375 C 231.945312 154.785156 230.894531 155.839844 229.59375 155.839844 C 229.105469 155.839844 228.652344 155.691406 228.277344 155.4375 C 228.277344 155.433594 228.273438 155.433594 228.269531 155.429688 C 228.175781 155.351562 228.078125 155.269531 227.976562 155.195312 C 227.375 154.714844 226.75 154.269531 226.109375 153.867188 C 225.914062 153.742188 225.714844 153.621094 225.515625 153.503906 C 225.503906 153.5 225.492188 153.492188 225.480469 153.488281 L 225.480469 153.496094 C 225.492188 153.503906 225.503906 153.507812 225.515625 153.515625 L 225.515625 153.535156 C 224.871094 153.152344 224.210938 152.808594 223.539062 152.5 C 223.53125 152.496094 223.523438 152.492188 223.515625 152.488281 C 223.484375 152.472656 223.457031 152.460938 223.425781 152.449219 C 223.347656 152.410156 223.265625 152.375 223.1875 152.339844 C 223.15625 152.328125 223.128906 152.316406 223.097656 152.304688 C 223.097656 152.304688 223.09375 152.300781 223.09375 152.300781 C 223.085938 152.296875 223.078125 152.296875 223.070312 152.289062 C 223.054688 152.28125 223.035156 152.273438 223.019531 152.269531 C 222.914062 152.222656 222.804688 152.179688 222.699219 152.136719 C 222.683594 152.128906 222.671875 152.125 222.660156 152.121094 C 222.546875 152.070312 222.433594 152.027344 222.320312 151.984375 C 222.316406 151.980469 222.308594 151.980469 222.304688 151.976562 C 222.296875 151.976562 222.289062 151.972656 222.28125 151.96875 C 221.988281 151.855469 221.691406 151.746094 221.390625 151.648438 C 221.285156 151.613281 221.179688 151.574219 221.070312 151.542969 C 220.882812 151.484375 220.699219 151.425781 220.511719 151.371094 C 220.390625 151.335938 220.265625 151.300781 220.144531 151.269531 C 219.980469 151.222656 219.8125 151.179688 219.644531 151.144531 C 219.546875 151.117188 219.449219 151.097656 219.351562 151.074219 C 219.320312 151.066406 219.292969 151.058594 219.261719 151.054688 C 219.210938 151.042969 219.164062 151.03125 219.113281 151.023438 C 219.003906 150.996094 218.894531 150.972656 218.785156 150.953125 C 218.679688 150.929688 218.574219 150.914062 218.46875 150.894531 C 218.382812 150.875 218.292969 150.863281 218.203125 150.847656 C 218.074219 150.824219 217.945312 150.800781 217.8125 150.785156 C 217.6875 150.765625 217.558594 150.746094 217.429688 150.730469 C 217.296875 150.710938 217.15625 150.695312 217.019531 150.679688 C 216.828125 150.65625 216.632812 150.636719 216.4375 150.621094 C 216.351562 150.613281 216.261719 150.605469 216.175781 150.601562 C 216.082031 150.59375 215.996094 150.589844 215.902344 150.582031 C 215.828125 150.578125 215.753906 150.574219 215.679688 150.574219 C 215.613281 150.570312 215.546875 150.566406 215.484375 150.566406 L 215.476562 150.566406 C 215.359375 150.558594 215.246094 150.554688 215.128906 150.550781 L 215.105469 150.550781 C 214.953125 150.550781 214.800781 150.546875 214.648438 150.546875 C 211.773438 150.546875 209.023438 151.125 206.507812 152.175781 C 206.5 152.175781 206.496094 152.179688 206.488281 152.183594 C 206.363281 152.234375 206.238281 152.289062 206.113281 152.339844 C 206.074219 152.355469 206.039062 152.371094 206 152.394531 C 205.871094 152.449219 205.738281 152.511719 205.605469 152.574219 C 203.339844 153.628906 201.21875 155.109375 199.355469 157.007812 C 197.988281 158.40625 196.84375 159.941406 195.921875 161.578125 C 195.914062 161.589844 195.90625 161.597656 195.902344 161.609375 C 195.90625 161.613281 195.910156 161.613281 195.910156 161.613281 C 195.917969 161.601562 195.925781 161.585938 195.929688 161.578125 L 195.972656 161.578125 C 195.609375 162.21875 195.28125 162.875 194.988281 163.542969 C 194.984375 163.550781 194.976562 163.5625 194.976562 163.570312 C 194.960938 163.601562 194.945312 163.628906 194.933594 163.660156 C 194.898438 163.738281 194.863281 163.820312 194.828125 163.902344 C 194.816406 163.933594 194.804688 163.960938 194.792969 163.992188 C 194.792969 163.992188 194.792969 163.996094 194.792969 163.996094 C 194.789062 164.003906 194.78125 164.011719 194.78125 164.023438 C 194.773438 164.039062 194.765625 164.054688 194.757812 164.074219 C 194.726562 164.148438 194.695312 164.226562 194.664062 164.300781 C 194.648438 164.347656 194.628906 164.394531 194.609375 164.441406 C 194.445312 164.867188 194.289062 165.296875 194.148438 165.730469 C 194.113281 165.839844 194.078125 165.949219 194.046875 166.058594 C 193.988281 166.25 193.933594 166.4375 193.878906 166.628906 C 193.847656 166.75 193.8125 166.878906 193.78125 167.003906 C 193.734375 167.171875 193.691406 167.339844 193.65625 167.511719 C 193.628906 167.613281 193.609375 167.710938 193.585938 167.8125 C 193.578125 167.84375 193.574219 167.871094 193.566406 167.902344 C 193.554688 167.953125 193.546875 168.003906 193.539062 168.054688 C 193.511719 168.167969 193.488281 168.277344 193.46875 168.390625 C 193.449219 168.496094 193.429688 168.601562 193.410156 168.710938 C 193.394531 168.800781 193.378906 168.890625 193.363281 168.984375 C 193.34375 169.117188 193.320312 169.246094 193.300781 169.378906 C 193.285156 169.507812 193.265625 169.640625 193.25 169.769531 C 193.230469 169.910156 193.214844 170.046875 193.199219 170.1875 C 193.175781 170.386719 193.160156 170.585938 193.144531 170.785156 C 193.136719 170.875 193.132812 170.960938 193.125 171.050781 C 193.117188 171.144531 193.113281 171.238281 193.105469 171.328125 C 193.101562 171.40625 193.097656 171.480469 193.09375 171.558594 C 193.09375 171.625 193.089844 171.691406 193.089844 171.757812 L 193.089844 171.761719 C 193.085938 171.882812 193.082031 172 193.078125 172.121094 L 193.078125 172.144531 C 193.074219 172.300781 193.074219 172.453125 193.074219 172.609375 C 193.074219 175.542969 193.636719 178.347656 194.667969 180.914062 C 194.667969 180.917969 194.671875 180.925781 194.675781 180.933594 C 194.726562 181.058594 194.777344 181.1875 194.832031 181.3125 C 194.847656 181.355469 194.863281 181.390625 194.878906 181.429688 C 195.199219 182.179688 195.5625 182.917969 195.96875 183.636719 L 195.921875 183.636719 C 196.84375 185.269531 197.988281 186.808594 199.355469 188.207031 C 201.261719 190.148438 203.4375 191.652344 205.761719 192.710938 C 205.769531 192.71875 205.777344 192.71875 205.785156 192.726562 C 205.816406 192.742188 205.84375 192.753906 205.875 192.765625 C 205.953125 192.804688 206.035156 192.839844 206.117188 192.875 C 206.144531 192.886719 206.171875 192.898438 206.203125 192.910156 C 206.203125 192.910156 206.207031 192.914062 206.207031 192.914062 C 206.214844 192.914062 206.222656 192.921875 206.230469 192.921875 C 206.246094 192.929688 206.265625 192.9375 206.28125 192.945312 C 206.359375 192.976562 206.433594 193.007812 206.507812 193.042969 C 206.550781 193.058594 206.597656 193.078125 206.640625 193.097656 C 207.058594 193.265625 207.480469 193.421875 207.910156 193.566406 C 208.015625 193.601562 208.121094 193.636719 208.230469 193.671875 C 208.417969 193.730469 208.601562 193.789062 208.789062 193.839844 C 208.910156 193.875 209.035156 193.910156 209.15625 193.941406 C 209.324219 193.988281 209.488281 194.03125 209.65625 194.070312 C 209.753906 194.097656 209.851562 194.117188 209.949219 194.140625 C 209.980469 194.148438 210.007812 194.152344 210.039062 194.160156 C 210.089844 194.171875 210.136719 194.179688 210.1875 194.191406 C 210.296875 194.21875 210.40625 194.238281 210.515625 194.261719 C 210.621094 194.28125 210.722656 194.300781 210.832031 194.320312 C 210.917969 194.335938 211.007812 194.351562 211.097656 194.367188 C 211.226562 194.386719 211.355469 194.410156 211.488281 194.429688 C 211.613281 194.445312 211.742188 194.46875 211.871094 194.484375 C 212.007812 194.5 212.140625 194.519531 212.277344 194.535156 C 212.472656 194.554688 212.667969 194.574219 212.863281 194.589844 C 212.949219 194.597656 213.039062 194.605469 213.125 194.609375 C 213.21875 194.617188 213.304688 194.621094 213.398438 194.628906 C 213.472656 194.632812 213.546875 194.636719 213.621094 194.640625 C 213.648438 194.640625 213.671875 194.644531 213.699219 194.644531 C 213.738281 194.644531 213.777344 194.648438 213.816406 194.648438 L 213.820312 194.648438 C 213.835938 194.648438 213.847656 194.648438 213.863281 194.648438 C 213.867188 194.648438 213.867188 194.652344 213.871094 194.652344 C 213.96875 194.652344 214.070312 194.660156 214.171875 194.660156 L 214.195312 194.660156 C 214.363281 194.664062 214.53125 194.667969 214.703125 194.667969 C 214.851562 194.667969 215.003906 194.664062 215.15625 194.660156 L 215.179688 194.660156 C 215.296875 194.660156 215.410156 194.652344 215.53125 194.652344 L 215.535156 194.652344 C 215.597656 194.648438 215.664062 194.644531 215.730469 194.640625 C 215.804688 194.636719 215.878906 194.636719 215.953125 194.628906 C 216.042969 194.621094 216.136719 194.617188 216.226562 194.609375 C 216.316406 194.605469 216.398438 194.597656 216.488281 194.589844 C 216.683594 194.574219 216.878906 194.558594 217.070312 194.535156 C 217.207031 194.519531 217.34375 194.503906 217.480469 194.484375 C 217.609375 194.46875 217.738281 194.449219 217.867188 194.429688 C 218.054688 194.402344 218.242188 194.371094 218.429688 194.335938 C 218.546875 194.316406 218.667969 194.292969 218.785156 194.269531 C 218.964844 194.234375 219.136719 194.199219 219.3125 194.160156 C 219.4375 194.132812 219.558594 194.101562 219.679688 194.074219 C 219.851562 194.03125 220.023438 193.988281 220.195312 193.945312 C 220.472656 193.867188 220.75 193.789062 221.023438 193.699219 C 221.167969 193.65625 221.308594 193.609375 221.453125 193.5625 C 221.59375 193.515625 221.734375 193.464844 221.875 193.414062 C 221.984375 193.375 222.089844 193.339844 222.199219 193.296875 C 222.253906 193.273438 222.308594 193.253906 222.367188 193.230469 C 222.367188 193.230469 222.367188 193.230469 222.371094 193.230469 C 222.378906 193.226562 222.386719 193.222656 222.394531 193.21875 C 222.402344 193.21875 222.410156 193.214844 222.417969 193.210938 C 222.457031 193.195312 222.5 193.179688 222.539062 193.164062 C 222.597656 193.140625 222.652344 193.117188 222.707031 193.097656 C 222.738281 193.085938 222.761719 193.074219 222.789062 193.0625 C 222.804688 193.054688 222.820312 193.050781 222.832031 193.042969 C 222.921875 193.007812 223.015625 192.96875 223.105469 192.929688 C 223.125 192.921875 223.140625 192.914062 223.160156 192.90625 C 223.222656 192.875 223.285156 192.847656 223.347656 192.824219 C 223.375 192.808594 223.398438 192.800781 223.421875 192.789062 C 223.460938 192.773438 223.496094 192.757812 223.527344 192.742188 C 223.546875 192.730469 223.570312 192.722656 223.589844 192.710938 C 223.601562 192.707031 223.613281 192.699219 223.625 192.695312 C 225.40625 191.878906 227.101562 190.800781 228.652344 189.464844 C 228.921875 189.363281 229.214844 189.308594 229.519531 189.308594 C 230.863281 189.308594 231.949219 190.359375 231.949219 191.660156 L 231.949219 185.921875 L 231.949219 194.664062 L 236.296875 194.664062 L 236.296875 173.828125 C 236.300781 173.773438 236.300781 173.714844 236.304688 173.660156 C 236.308594 173.589844 236.3125 173.523438 236.3125 173.457031 L 236.3125 173.453125 C 236.320312 173.332031 236.320312 173.214844 236.324219 173.097656 L 236.324219 173.070312 C 236.328125 172.917969 236.328125 172.761719 236.328125 172.605469 C 236.324219 172.199219 236.316406 171.792969 236.292969 171.390625 Z M 204.109375 158.632812 C 204.214844 158.550781 204.316406 158.472656 204.421875 158.394531 C 204.523438 158.3125 204.628906 158.238281 204.734375 158.164062 C 204.839844 158.089844 204.945312 158.015625 205.050781 157.945312 C 205.0625 157.933594 205.070312 157.925781 205.082031 157.921875 C 205.179688 157.855469 205.28125 157.789062 205.382812 157.722656 C 205.492188 157.652344 205.605469 157.582031 205.714844 157.511719 C 205.882812 157.410156 206.050781 157.308594 206.21875 157.210938 C 206.390625 157.113281 206.5625 157.019531 206.738281 156.929688 C 206.855469 156.867188 206.972656 156.808594 207.089844 156.75 C 207.207031 156.691406 207.324219 156.632812 207.445312 156.582031 C 207.550781 156.527344 207.660156 156.480469 207.765625 156.433594 C 207.785156 156.421875 207.800781 156.414062 207.820312 156.410156 C 207.933594 156.355469 208.050781 156.308594 208.167969 156.261719 C 208.289062 156.207031 208.410156 156.160156 208.53125 156.117188 C 208.535156 156.113281 208.535156 156.113281 208.542969 156.113281 C 208.636719 156.074219 208.734375 156.035156 208.832031 156.003906 C 208.882812 155.984375 208.929688 155.964844 208.984375 155.949219 C 209.0625 155.921875 209.136719 155.894531 209.21875 155.867188 C 209.257812 155.851562 209.300781 155.839844 209.34375 155.824219 C 209.449219 155.789062 209.554688 155.757812 209.660156 155.726562 C 209.773438 155.6875 209.886719 155.65625 210.003906 155.625 C 210.035156 155.613281 210.066406 155.605469 210.101562 155.597656 C 210.210938 155.566406 210.320312 155.535156 210.433594 155.511719 C 210.5625 155.476562 210.691406 155.445312 210.824219 155.414062 C 210.953125 155.382812 211.082031 155.355469 211.21875 155.328125 C 211.347656 155.300781 211.480469 155.277344 211.613281 155.253906 C 211.875 155.203125 212.148438 155.160156 212.417969 155.125 C 212.550781 155.109375 212.683594 155.09375 212.820312 155.078125 C 212.820312 155.078125 212.820312 155.078125 212.824219 155.078125 L 212.738281 155.183594 C 213.152344 155.046875 213.628906 155.246094 213.949219 155.496094 C 213.953125 155.5 213.957031 155.503906 213.964844 155.503906 C 214.039062 155.265625 214.195312 155.085938 214.386719 154.984375 C 214.472656 154.980469 214.558594 154.980469 214.648438 154.980469 C 214.8125 154.980469 214.980469 154.980469 215.144531 154.988281 C 215.253906 155.050781 215.355469 155.140625 215.445312 155.269531 C 215.371094 155.136719 215.546875 155.277344 215.703125 155.304688 C 215.734375 155.3125 215.769531 155.324219 215.800781 155.332031 C 216 155.164062 216.261719 155.085938 216.496094 155.113281 L 216.46875 155.078125 C 216.742188 155.109375 217.011719 155.144531 217.28125 155.183594 C 217.386719 155.199219 217.488281 155.21875 217.59375 155.238281 C 217.640625 155.246094 217.6875 155.253906 217.734375 155.261719 C 217.847656 155.285156 217.964844 155.304688 218.074219 155.328125 C 218.1875 155.351562 218.300781 155.375 218.410156 155.398438 C 218.484375 155.414062 218.554688 155.433594 218.625 155.453125 C 218.699219 155.464844 218.769531 155.484375 218.84375 155.503906 C 218.945312 155.53125 219.050781 155.558594 219.152344 155.585938 C 219.21875 155.605469 219.285156 155.621094 219.351562 155.640625 C 219.441406 155.667969 219.53125 155.695312 219.621094 155.722656 C 219.683594 155.738281 219.746094 155.761719 219.808594 155.78125 C 219.835938 155.785156 219.859375 155.792969 219.882812 155.804688 C 219.949219 155.824219 220.019531 155.847656 220.089844 155.871094 C 220.234375 155.917969 220.378906 155.96875 220.519531 156.023438 C 220.605469 156.054688 220.6875 156.085938 220.777344 156.121094 C 220.835938 156.144531 220.894531 156.164062 220.949219 156.191406 C 221.007812 156.210938 221.066406 156.234375 221.125 156.261719 C 221.222656 156.296875 221.3125 156.339844 221.40625 156.378906 C 221.417969 156.382812 221.429688 156.386719 221.4375 156.390625 C 221.480469 156.410156 221.527344 156.429688 221.570312 156.449219 C 221.59375 156.460938 221.621094 156.472656 221.648438 156.484375 C 221.714844 156.515625 221.78125 156.546875 221.851562 156.578125 C 221.898438 156.601562 221.949219 156.625 222 156.648438 C 222.035156 156.664062 222.070312 156.683594 222.109375 156.703125 C 222.140625 156.71875 222.171875 156.734375 222.207031 156.75 C 222.277344 156.785156 222.351562 156.820312 222.425781 156.863281 C 222.488281 156.894531 222.554688 156.925781 222.617188 156.960938 C 222.652344 156.980469 222.695312 157 222.734375 157.023438 C 222.839844 157.082031 222.949219 157.140625 223.050781 157.199219 C 223.167969 157.265625 223.28125 157.332031 223.394531 157.398438 C 223.429688 157.417969 223.46875 157.445312 223.503906 157.464844 C 223.570312 157.503906 223.632812 157.546875 223.699219 157.585938 C 223.730469 157.605469 223.761719 157.625 223.789062 157.644531 C 223.792969 157.644531 223.796875 157.648438 223.796875 157.648438 C 223.917969 157.726562 224.039062 157.804688 224.152344 157.882812 C 224.203125 157.914062 224.253906 157.949219 224.304688 157.984375 C 224.347656 158.015625 224.390625 158.046875 224.4375 158.074219 C 224.441406 158.078125 224.445312 158.082031 224.449219 158.085938 C 224.496094 158.117188 224.542969 158.152344 224.585938 158.183594 C 225.386719 158.761719 226.152344 159.414062 226.867188 160.144531 C 229.582031 162.910156 231.203125 166.367188 231.738281 169.960938 L 231.75 169.960938 C 231.777344 170.117188 231.796875 170.277344 231.816406 170.4375 C 231.828125 170.53125 231.839844 170.625 231.847656 170.71875 C 231.851562 170.726562 231.851562 170.734375 231.851562 170.742188 C 231.851562 170.761719 231.855469 170.785156 231.859375 170.804688 C 231.867188 170.921875 231.878906 171.035156 231.886719 171.152344 C 231.898438 171.246094 231.902344 171.339844 231.90625 171.429688 C 231.90625 171.460938 231.910156 171.484375 231.910156 171.515625 C 231.914062 171.546875 231.914062 171.578125 231.917969 171.609375 C 231.925781 171.789062 231.933594 171.96875 231.941406 172.148438 C 231.941406 172.179688 231.941406 172.210938 231.941406 172.242188 L 231.941406 172.285156 C 231.945312 172.390625 231.945312 172.5 231.945312 172.609375 C 231.945312 172.796875 231.941406 172.988281 231.9375 173.175781 C 231.933594 173.269531 231.929688 173.363281 231.925781 173.457031 C 231.925781 173.488281 231.921875 173.519531 231.921875 173.550781 C 231.914062 173.660156 231.910156 173.769531 231.902344 173.878906 C 231.894531 173.960938 231.886719 174.046875 231.882812 174.132812 C 231.878906 174.179688 231.875 174.226562 231.867188 174.277344 C 231.867188 174.285156 231.867188 174.292969 231.867188 174.300781 C 231.859375 174.363281 231.855469 174.429688 231.847656 174.492188 C 231.847656 174.492188 231.847656 174.496094 231.847656 174.496094 C 231.84375 174.542969 231.835938 174.59375 231.832031 174.640625 C 231.828125 174.671875 231.824219 174.710938 231.820312 174.75 C 231.808594 174.839844 231.796875 174.929688 231.785156 175.023438 C 231.777344 175.082031 231.769531 175.136719 231.761719 175.195312 C 231.757812 175.214844 231.753906 175.234375 231.75 175.253906 L 231.742188 175.253906 C 231.570312 176.429688 231.28125 177.589844 230.875 178.714844 C 230.816406 178.882812 230.753906 179.046875 230.6875 179.210938 C 230.660156 179.28125 230.632812 179.355469 230.601562 179.429688 C 230.585938 179.464844 230.574219 179.496094 230.558594 179.527344 C 230.535156 179.585938 230.511719 179.648438 230.484375 179.703125 C 230.46875 179.746094 230.449219 179.785156 230.433594 179.824219 C 230.429688 179.835938 230.421875 179.851562 230.417969 179.863281 C 230.371094 179.960938 230.328125 180.0625 230.28125 180.164062 C 230.273438 180.175781 230.265625 180.191406 230.257812 180.207031 C 230.253906 180.21875 230.246094 180.234375 230.238281 180.25 C 230.191406 180.347656 230.148438 180.441406 230.097656 180.535156 C 230.09375 180.542969 230.089844 180.550781 230.089844 180.558594 C 230.085938 180.566406 230.082031 180.574219 230.078125 180.582031 C 230.070312 180.597656 230.058594 180.617188 230.050781 180.632812 C 230.050781 180.636719 230.050781 180.636719 230.050781 180.636719 C 230.03125 180.671875 230.015625 180.707031 229.996094 180.742188 C 229.984375 180.765625 229.972656 180.792969 229.957031 180.816406 C 229.945312 180.839844 229.933594 180.863281 229.917969 180.886719 C 229.902344 180.921875 229.886719 180.953125 229.871094 180.984375 C 229.828125 181.0625 229.785156 181.144531 229.742188 181.222656 C 229.71875 181.265625 229.699219 181.304688 229.675781 181.34375 C 229.640625 181.40625 229.605469 181.46875 229.566406 181.53125 C 229.5625 181.539062 229.554688 181.546875 229.550781 181.558594 C 229.546875 181.566406 229.542969 181.574219 229.539062 181.585938 C 229.523438 181.605469 229.507812 181.628906 229.496094 181.652344 C 229.445312 181.738281 229.394531 181.824219 229.34375 181.910156 C 229.277344 182.019531 229.210938 182.121094 229.144531 182.226562 C 229.136719 182.242188 229.125 182.257812 229.117188 182.273438 C 229.050781 182.371094 228.988281 182.46875 228.921875 182.566406 C 228.832031 182.699219 228.738281 182.832031 228.644531 182.964844 C 228.585938 183.050781 228.523438 183.136719 228.460938 183.21875 C 228.375 183.332031 228.289062 183.449219 228.203125 183.558594 C 228.132812 183.652344 228.058594 183.746094 227.976562 183.839844 C 227.855469 183.992188 227.730469 184.144531 227.601562 184.292969 C 227.472656 184.4375 227.339844 184.585938 227.207031 184.730469 C 227.117188 184.824219 227.027344 184.921875 226.9375 185.011719 C 226.765625 185.1875 226.585938 185.363281 226.410156 185.53125 C 226.289062 185.644531 226.167969 185.757812 226.042969 185.867188 C 225.960938 185.945312 225.878906 186.015625 225.792969 186.085938 C 225.703125 186.167969 225.613281 186.242188 225.519531 186.316406 C 225.5 186.332031 225.488281 186.347656 225.472656 186.359375 C 225.378906 186.433594 225.285156 186.507812 225.1875 186.582031 C 225.085938 186.664062 224.980469 186.742188 224.878906 186.820312 C 224.773438 186.902344 224.667969 186.976562 224.5625 187.050781 C 224.457031 187.128906 224.355469 187.203125 224.246094 187.273438 C 224.238281 187.277344 224.226562 187.289062 224.214844 187.292969 C 224.117188 187.363281 224.015625 187.429688 223.914062 187.492188 C 223.804688 187.566406 223.695312 187.636719 223.582031 187.703125 C 223.417969 187.804688 223.25 187.90625 223.078125 188.003906 C 222.90625 188.101562 222.734375 188.195312 222.558594 188.285156 C 222.441406 188.351562 222.328125 188.410156 222.207031 188.464844 C 222.09375 188.523438 221.972656 188.582031 221.855469 188.636719 C 221.746094 188.6875 221.640625 188.738281 221.53125 188.785156 C 221.511719 188.792969 221.496094 188.800781 221.480469 188.808594 C 221.363281 188.859375 221.246094 188.910156 221.128906 188.957031 C 221.007812 189.007812 220.890625 189.054688 220.765625 189.101562 C 220.765625 189.101562 220.761719 189.101562 220.757812 189.101562 C 220.660156 189.140625 220.566406 189.175781 220.46875 189.210938 C 220.414062 189.230469 220.367188 189.25 220.316406 189.269531 C 220.238281 189.296875 220.160156 189.324219 220.082031 189.347656 C 220.042969 189.363281 219.996094 189.375 219.953125 189.390625 C 219.847656 189.425781 219.742188 189.460938 219.636719 189.492188 C 219.523438 189.527344 219.410156 189.558594 219.296875 189.59375 C 219.261719 189.601562 219.230469 189.609375 219.195312 189.617188 C 219.089844 189.648438 218.976562 189.679688 218.867188 189.707031 C 218.738281 189.742188 218.605469 189.773438 218.476562 189.800781 C 218.34375 189.832031 218.214844 189.863281 218.082031 189.890625 C 217.949219 189.917969 217.816406 189.941406 217.683594 189.964844 C 217.417969 190.011719 217.152344 190.054688 216.882812 190.089844 C 216.75 190.105469 216.613281 190.125 216.480469 190.136719 C 216.476562 190.136719 216.476562 190.136719 216.476562 190.136719 C 215.960938 190.195312 215.4375 190.226562 214.914062 190.234375 C 214.824219 190.234375 214.738281 190.234375 214.648438 190.234375 C 214.484375 190.234375 214.320312 190.234375 214.152344 190.226562 C 213.683594 190.214844 213.21875 190.179688 212.757812 190.128906 C 212.730469 190.125 212.699219 190.121094 212.667969 190.117188 C 212.609375 190.113281 212.546875 190.105469 212.488281 190.097656 C 212.328125 190.078125 212.171875 190.054688 212.019531 190.03125 C 211.972656 190.023438 211.929688 190.015625 211.886719 190.011719 C 211.875 190.007812 211.867188 190.007812 211.855469 190.003906 C 211.847656 190.003906 211.835938 190.003906 211.828125 190 C 211.824219 190 211.820312 190 211.816406 190 C 211.804688 190 211.796875 189.996094 211.789062 189.996094 C 211.761719 189.992188 211.738281 189.984375 211.710938 189.980469 C 211.703125 189.980469 211.691406 189.980469 211.683594 189.976562 C 211.679688 189.976562 211.675781 189.976562 211.671875 189.976562 C 211.664062 189.972656 211.65625 189.972656 211.648438 189.972656 C 211.625 189.96875 211.605469 189.964844 211.585938 189.957031 C 211.546875 189.949219 211.511719 189.945312 211.472656 189.9375 C 211.433594 189.929688 211.398438 189.921875 211.359375 189.914062 C 211.355469 189.914062 211.351562 189.914062 211.34375 189.914062 C 211.335938 189.910156 211.328125 189.910156 211.316406 189.90625 C 211.285156 189.902344 211.253906 189.894531 211.222656 189.890625 C 211.210938 189.886719 211.199219 189.882812 211.191406 189.882812 C 211.1875 189.882812 211.183594 189.882812 211.179688 189.878906 C 210.972656 189.835938 210.761719 189.789062 210.554688 189.738281 C 209.933594 189.582031 209.316406 189.390625 208.710938 189.164062 C 208.550781 189.101562 208.386719 189.039062 208.222656 188.972656 C 208.152344 188.941406 208.082031 188.914062 208.011719 188.882812 C 207.980469 188.871094 207.945312 188.855469 207.914062 188.84375 C 207.855469 188.816406 207.796875 188.789062 207.742188 188.765625 C 207.703125 188.746094 207.664062 188.730469 207.625 188.710938 C 207.613281 188.707031 207.597656 188.699219 207.589844 188.695312 C 207.492188 188.648438 207.394531 188.605469 207.296875 188.558594 C 207.28125 188.550781 207.265625 188.542969 207.25 188.535156 C 207.238281 188.527344 207.222656 188.519531 207.210938 188.515625 C 207.117188 188.46875 207.019531 188.417969 206.929688 188.371094 C 206.921875 188.367188 206.910156 188.363281 206.90625 188.359375 C 206.898438 188.359375 206.890625 188.351562 206.882812 188.351562 C 206.867188 188.34375 206.847656 188.332031 206.832031 188.324219 C 206.832031 188.320312 206.828125 188.320312 206.828125 188.320312 C 206.792969 188.304688 206.761719 188.285156 206.730469 188.265625 C 206.703125 188.25 206.679688 188.238281 206.65625 188.226562 C 206.632812 188.210938 206.605469 188.199219 206.582031 188.183594 C 206.550781 188.167969 206.523438 188.152344 206.488281 188.136719 C 206.410156 188.09375 206.332031 188.050781 206.253906 188.003906 C 206.214844 187.980469 206.175781 187.960938 206.136719 187.9375 C 206.074219 187.902344 206.015625 187.867188 205.953125 187.828125 C 205.945312 187.824219 205.9375 187.816406 205.925781 187.8125 C 205.917969 187.808594 205.910156 187.804688 205.898438 187.796875 C 205.878906 187.78125 205.855469 187.765625 205.832031 187.753906 C 205.746094 187.703125 205.664062 187.652344 205.578125 187.597656 C 205.476562 187.53125 205.371094 187.464844 205.269531 187.394531 C 205.253906 187.386719 205.238281 187.375 205.222656 187.367188 C 205.128906 187.300781 205.03125 187.234375 204.933594 187.167969 C 204.804688 187.078125 204.675781 186.980469 204.546875 186.886719 C 204.460938 186.824219 204.378906 186.761719 204.296875 186.699219 C 204.183594 186.609375 204.074219 186.523438 203.960938 186.433594 C 203.871094 186.363281 203.78125 186.285156 203.6875 186.207031 C 203.539062 186.082031 203.390625 185.953125 203.246094 185.820312 C 203.101562 185.6875 202.957031 185.554688 202.816406 185.417969 C 202.722656 185.328125 202.628906 185.238281 202.539062 185.144531 C 202.363281 184.964844 202.195312 184.785156 202.027344 184.605469 C 201.917969 184.484375 201.808594 184.359375 201.699219 184.230469 C 201.625 184.148438 201.554688 184.0625 201.484375 183.980469 C 201.40625 183.882812 201.332031 183.792969 201.261719 183.699219 C 201.246094 183.679688 201.234375 183.664062 201.21875 183.648438 C 201.144531 183.554688 201.070312 183.457031 201 183.359375 C 200.917969 183.257812 200.839844 183.152344 200.765625 183.046875 C 200.6875 182.9375 200.613281 182.832031 200.539062 182.722656 C 200.464844 182.613281 200.390625 182.507812 200.324219 182.398438 C 200.316406 182.390625 200.308594 182.378906 200.300781 182.367188 C 200.234375 182.265625 200.167969 182.164062 200.105469 182.0625 C 200.035156 181.949219 199.96875 181.835938 199.902344 181.722656 C 199.800781 181.550781 199.703125 181.378906 199.605469 181.207031 C 199.511719 181.03125 199.417969 180.855469 199.328125 180.675781 C 199.265625 180.558594 199.207031 180.441406 199.152344 180.320312 C 199.09375 180.199219 199.039062 180.078125 198.984375 179.957031 C 198.9375 179.847656 198.886719 179.738281 198.839844 179.628906 C 198.832031 179.609375 198.828125 179.59375 198.820312 179.578125 C 198.769531 179.457031 198.71875 179.339844 198.671875 179.21875 C 198.621094 179.097656 198.578125 178.972656 198.53125 178.847656 C 198.53125 178.847656 198.527344 178.84375 198.527344 178.839844 C 198.492188 178.742188 198.457031 178.644531 198.421875 178.546875 C 198.40625 178.492188 198.386719 178.441406 198.367188 178.386719 C 198.339844 178.308594 198.3125 178.230469 198.289062 178.152344 C 198.273438 178.105469 198.261719 178.0625 198.246094 178.019531 C 198.210938 177.910156 198.179688 177.804688 198.148438 177.695312 C 198.113281 177.578125 198.082031 177.460938 198.050781 177.347656 C 198.039062 177.3125 198.03125 177.277344 198.023438 177.246094 C 197.992188 177.136719 197.964844 177.019531 197.9375 176.90625 C 197.902344 176.777344 197.871094 176.644531 197.84375 176.511719 C 197.8125 176.378906 197.785156 176.246094 197.757812 176.109375 C 197.730469 175.976562 197.707031 175.839844 197.683594 175.707031 C 197.636719 175.433594 197.597656 175.160156 197.5625 174.882812 C 197.542969 174.75 197.527344 174.613281 197.511719 174.472656 C 197.511719 174.472656 197.511719 174.472656 197.511719 174.46875 C 197.457031 173.945312 197.429688 173.414062 197.421875 172.875 C 197.417969 172.785156 197.417969 172.695312 197.417969 172.605469 C 197.417969 172.4375 197.421875 172.269531 197.425781 172.101562 C 197.4375 171.621094 197.472656 171.148438 197.523438 170.675781 C 197.523438 170.648438 197.527344 170.617188 197.53125 170.585938 C 197.539062 170.523438 197.546875 170.464844 197.554688 170.402344 C 197.570312 170.238281 197.59375 170.082031 197.617188 169.921875 C 197.625 169.875 197.628906 169.832031 197.636719 169.789062 C 197.644531 169.753906 197.648438 169.71875 197.65625 169.683594 C 197.664062 169.613281 197.675781 169.546875 197.6875 169.484375 C 197.695312 169.441406 197.703125 169.402344 197.710938 169.367188 C 197.71875 169.328125 197.722656 169.289062 197.730469 169.253906 C 197.730469 169.238281 197.734375 169.226562 197.738281 169.207031 C 197.753906 169.117188 197.777344 169.019531 197.792969 168.929688 C 197.808594 168.863281 197.820312 168.796875 197.835938 168.726562 C 197.863281 168.601562 197.894531 168.476562 197.921875 168.347656 C 197.925781 168.335938 197.929688 168.324219 197.933594 168.308594 C 197.957031 168.210938 197.984375 168.113281 198.011719 168.011719 C 198.011719 168.003906 198.015625 167.992188 198.015625 167.984375 C 198.023438 167.953125 198.03125 167.917969 198.042969 167.886719 C 198.050781 167.855469 198.054688 167.832031 198.066406 167.808594 C 198.066406 167.800781 198.070312 167.792969 198.070312 167.78125 C 198.085938 167.71875 198.105469 167.65625 198.128906 167.59375 C 198.128906 167.570312 198.136719 167.546875 198.144531 167.523438 C 198.144531 167.523438 198.144531 167.523438 198.144531 167.519531 C 198.148438 167.511719 198.152344 167.5 198.15625 167.492188 C 198.164062 167.460938 198.175781 167.429688 198.183594 167.394531 C 198.207031 167.316406 198.230469 167.242188 198.253906 167.164062 C 198.265625 167.128906 198.277344 167.089844 198.292969 167.050781 C 198.308594 167 198.328125 166.941406 198.347656 166.890625 C 198.355469 166.859375 198.363281 166.832031 198.375 166.800781 C 198.378906 166.785156 198.386719 166.769531 198.390625 166.753906 C 198.394531 166.738281 198.402344 166.726562 198.40625 166.710938 C 198.421875 166.664062 198.441406 166.609375 198.460938 166.5625 C 198.480469 166.5 198.503906 166.4375 198.527344 166.375 C 198.539062 166.335938 198.554688 166.300781 198.570312 166.261719 C 198.589844 166.210938 198.605469 166.164062 198.628906 166.113281 C 198.636719 166.089844 198.644531 166.0625 198.65625 166.039062 C 198.660156 166.027344 198.664062 166.011719 198.671875 166 C 198.703125 165.917969 198.734375 165.835938 198.769531 165.757812 C 198.78125 165.730469 198.789062 165.707031 198.800781 165.679688 C 198.828125 165.617188 198.855469 165.554688 198.878906 165.492188 C 198.902344 165.445312 198.921875 165.398438 198.945312 165.351562 C 198.96875 165.289062 198.996094 165.230469 199.027344 165.167969 C 199.050781 165.109375 199.078125 165.054688 199.105469 164.996094 C 199.128906 164.941406 199.15625 164.882812 199.1875 164.828125 C 199.210938 164.773438 199.234375 164.722656 199.261719 164.671875 C 199.292969 164.605469 199.324219 164.542969 199.359375 164.480469 C 199.375 164.449219 199.390625 164.417969 199.410156 164.382812 C 199.460938 164.277344 199.519531 164.175781 199.574219 164.070312 C 199.632812 163.960938 199.695312 163.851562 199.757812 163.742188 C 199.816406 163.632812 199.882812 163.527344 199.945312 163.421875 C 199.953125 163.40625 199.964844 163.394531 199.972656 163.378906 C 200.046875 163.246094 200.128906 163.117188 200.210938 162.992188 C 200.269531 162.894531 200.332031 162.800781 200.394531 162.707031 C 200.457031 162.613281 200.523438 162.519531 200.585938 162.425781 C 200.648438 162.332031 200.714844 162.242188 200.78125 162.152344 C 201.246094 161.503906 201.753906 160.890625 202.304688 160.316406 C 202.472656 160.136719 202.640625 159.964844 202.816406 159.796875 L 202.820312 159.796875 C 203.160156 159.464844 203.515625 159.148438 203.882812 158.84375 L 203.882812 158.808594 C 203.960938 158.75 204.035156 158.6875 204.109375 158.632812 Z M 204.109375 158.632812 " fill-opacity="1" fill-rule="nonzero"/></g><path fill="#f3ca52" d="M 215.566406 160.042969 C 215.511719 160.039062 215.464844 160.03125 215.417969 160.03125 C 215.351562 160.027344 215.285156 160.023438 215.21875 160.023438 C 215.140625 160.019531 215.078125 160.019531 215 160.011719 L 214.699219 160.011719 C 215.085938 160.011719 215.476562 160.03125 215.863281 160.066406 C 215.765625 160.054688 215.664062 160.046875 215.566406 160.042969 Z M 215.566406 160.042969 " fill-opacity="1" fill-rule="nonzero"/><path fill="#f3ca52" d="M 214.464844 160.011719 C 214.398438 160.011719 214.332031 160.015625 214.257812 160.015625 C 214.164062 160.023438 214.078125 160.027344 213.984375 160.03125 C 213.941406 160.03125 213.894531 160.035156 213.851562 160.039062 C 213.777344 160.042969 213.699219 160.050781 213.628906 160.058594 C 213.984375 160.027344 214.34375 160.011719 214.699219 160.011719 Z M 214.464844 160.011719 " fill-opacity="1" fill-rule="nonzero"/><path fill="#f3ca52" d="M 216.710938 160.179688 C 216.632812 160.164062 216.558594 160.152344 216.476562 160.140625 C 216.40625 160.128906 216.324219 160.121094 216.242188 160.109375 C 216.230469 160.109375 216.21875 160.109375 216.207031 160.105469 C 216.386719 160.128906 216.566406 160.15625 216.746094 160.1875 C 216.734375 160.183594 216.722656 160.179688 216.710938 160.179688 Z M 216.710938 160.179688 " fill-opacity="1" fill-rule="nonzero"/><path fill="#f3ca52" d="M 212.773438 160.164062 C 212.667969 160.175781 212.5625 160.199219 212.464844 160.21875 C 212.585938 160.195312 212.703125 160.175781 212.824219 160.15625 C 212.800781 160.15625 212.785156 160.15625 212.773438 160.164062 Z M 212.773438 160.164062 " fill-opacity="1" fill-rule="nonzero"/><path fill="#f3ca52" d="M 212.074219 160.296875 C 212.066406 160.300781 212.058594 160.300781 212.050781 160.304688 C 212.078125 160.296875 212.109375 160.292969 212.140625 160.285156 C 212.117188 160.289062 212.097656 160.292969 212.074219 160.296875 Z M 212.074219 160.296875 " fill-opacity="1" fill-rule="nonzero"/><path fill="#f3ca52" d="M 217.132812 160.257812 C 217.238281 160.277344 217.34375 160.300781 217.445312 160.328125 C 217.34375 160.296875 217.238281 160.273438 217.132812 160.257812 Z M 217.132812 160.257812 " fill-opacity="1" fill-rule="nonzero"/><path fill="#f3ca52" d="M 217.515625 160.34375 C 217.511719 160.339844 217.503906 160.339844 217.5 160.339844 C 217.53125 160.347656 217.566406 160.355469 217.597656 160.363281 C 217.570312 160.355469 217.542969 160.347656 217.515625 160.34375 Z M 217.515625 160.34375 " fill-opacity="1" fill-rule="nonzero"/><path fill="#f3ca52" d="M 217.863281 160.429688 C 217.835938 160.421875 217.8125 160.417969 217.785156 160.410156 C 217.828125 160.421875 217.875 160.433594 217.917969 160.445312 C 217.898438 160.441406 217.882812 160.433594 217.863281 160.429688 Z M 217.863281 160.429688 " fill-opacity="1" fill-rule="nonzero"/><path fill="#f3ca52" d="M 211.175781 160.53125 L 211.089844 160.558594 C 211.179688 160.53125 211.273438 160.503906 211.363281 160.480469 C 211.300781 160.496094 211.238281 160.515625 211.175781 160.53125 Z M 211.175781 160.53125 " fill-opacity="1" fill-rule="nonzero"/><path fill="#f3ca52" d="M 218.246094 160.535156 C 218.195312 160.523438 218.144531 160.507812 218.09375 160.496094 C 218.171875 160.519531 218.246094 160.542969 218.328125 160.566406 C 218.300781 160.554688 218.273438 160.546875 218.246094 160.535156 Z M 218.246094 160.535156 " fill-opacity="1" fill-rule="nonzero"/><path fill="#f3ca52" d="M 218.902344 160.757812 C 218.796875 160.722656 218.695312 160.683594 218.585938 160.652344 C 218.71875 160.695312 218.847656 160.738281 218.972656 160.789062 C 218.953125 160.777344 218.929688 160.769531 218.902344 160.757812 Z M 218.902344 160.757812 " fill-opacity="1" fill-rule="nonzero"/><path fill="#f3ca52" d="M 219.054688 160.816406 C 219.027344 160.808594 219.003906 160.796875 218.972656 160.789062 C 219.007812 160.800781 219.035156 160.8125 219.066406 160.824219 C 219.0625 160.820312 219.058594 160.816406 219.054688 160.816406 Z M 219.054688 160.816406 " fill-opacity="1" fill-rule="nonzero"/><path fill="#f3ca52" d="M 206.367188 163.3125 C 206.335938 163.339844 206.308594 163.367188 206.277344 163.394531 C 206.328125 163.347656 206.378906 163.300781 206.429688 163.253906 C 206.40625 163.273438 206.386719 163.292969 206.367188 163.3125 Z M 206.367188 163.3125 " fill-opacity="1" fill-rule="nonzero"/><path fill="#f3ca52" d="M 204.984375 164.828125 L 204.945312 164.878906 C 204.964844 164.855469 204.984375 164.828125 205.003906 164.804688 C 205 164.8125 204.988281 164.820312 204.984375 164.828125 Z M 204.984375 164.828125 " fill-opacity="1" fill-rule="nonzero"/><path fill="#f3ca52" d="M 203.007812 168.550781 C 203.019531 168.511719 203.03125 168.476562 203.042969 168.441406 C 203.039062 168.449219 203.035156 168.460938 203.03125 168.472656 C 203.023438 168.5 203.015625 168.523438 203.007812 168.550781 Z M 203.007812 168.550781 " fill-opacity="1" fill-rule="nonzero"/><path fill="#f3ca52" d="M 202.75 169.414062 C 202.742188 169.453125 202.734375 169.492188 202.722656 169.53125 C 202.746094 169.449219 202.765625 169.363281 202.789062 169.28125 C 202.773438 169.328125 202.761719 169.367188 202.75 169.414062 Z M 202.75 169.414062 " fill-opacity="1" fill-rule="nonzero"/><path fill="#f3ca52" d="M 202.636719 169.90625 C 202.648438 169.851562 202.660156 169.796875 202.675781 169.742188 C 202.667969 169.761719 202.660156 169.785156 202.65625 169.808594 C 202.648438 169.839844 202.644531 169.871094 202.636719 169.90625 Z M 202.636719 169.90625 " fill-opacity="1" fill-rule="nonzero"/><path fill="#f3ca52" d="M 202.609375 170.046875 C 202.613281 170.03125 202.613281 170.015625 202.617188 170.003906 C 202.617188 170.007812 202.613281 170.011719 202.613281 170.015625 C 202.613281 170.027344 202.609375 170.035156 202.609375 170.046875 Z M 202.609375 170.046875 " fill-opacity="1" fill-rule="nonzero"/><path fill="#f3ca52" d="M 202.589844 170.140625 C 202.59375 170.109375 202.601562 170.074219 202.609375 170.046875 C 202.605469 170.054688 202.605469 170.0625 202.605469 170.070312 C 202.597656 170.089844 202.59375 170.117188 202.589844 170.140625 Z M 202.589844 170.140625 " fill-opacity="1" fill-rule="nonzero"/><path fill="#f3ca52" d="M 202.523438 170.496094 C 202.53125 170.460938 202.539062 170.425781 202.542969 170.386719 C 202.539062 170.410156 202.535156 170.425781 202.53125 170.449219 C 202.527344 170.464844 202.527344 170.480469 202.523438 170.496094 Z M 202.523438 170.496094 " fill-opacity="1" fill-rule="nonzero"/><path fill="#f3ca52" d="M 202.460938 170.921875 C 202.460938 170.945312 202.457031 170.96875 202.453125 170.992188 C 202.457031 170.957031 202.460938 170.921875 202.46875 170.886719 C 202.464844 170.898438 202.460938 170.910156 202.460938 170.921875 Z M 202.460938 170.921875 " fill-opacity="1" fill-rule="nonzero"/><path fill="#f3ca52" d="M 202.386719 171.632812 L 202.386719 171.6875 C 202.394531 171.566406 202.402344 171.445312 202.417969 171.324219 C 202.410156 171.367188 202.40625 171.410156 202.398438 171.457031 C 202.394531 171.511719 202.390625 171.578125 202.386719 171.632812 Z M 202.386719 171.632812 " fill-opacity="1" fill-rule="nonzero"/><path fill="#f3ca52" d="M 202.386719 173.578125 C 202.390625 173.636719 202.394531 173.699219 202.398438 173.753906 C 202.402344 173.777344 202.40625 173.792969 202.410156 173.816406 C 202.398438 173.71875 202.390625 173.625 202.386719 173.527344 Z M 202.386719 173.578125 " fill-opacity="1" fill-rule="nonzero"/><path fill="#f3ca52" d="M 202.464844 174.3125 C 202.460938 174.292969 202.460938 174.269531 202.457031 174.25 C 202.457031 174.261719 202.460938 174.273438 202.460938 174.289062 C 202.460938 174.292969 202.464844 174.304688 202.464844 174.3125 Z M 202.464844 174.3125 " fill-opacity="1" fill-rule="nonzero"/><path fill="#f3ca52" d="M 202.605469 175.148438 C 202.605469 175.152344 202.605469 175.160156 202.609375 175.167969 C 202.605469 175.148438 202.601562 175.128906 202.597656 175.109375 C 202.597656 175.121094 202.601562 175.132812 202.605469 175.148438 Z M 202.605469 175.148438 " fill-opacity="1" fill-rule="nonzero"/><path fill="#f3ca52" d="M 202.65625 175.402344 C 202.660156 175.421875 202.664062 175.4375 202.671875 175.457031 C 202.660156 175.414062 202.648438 175.367188 202.640625 175.324219 C 202.644531 175.351562 202.652344 175.375 202.65625 175.402344 Z M 202.65625 175.402344 " fill-opacity="1" fill-rule="nonzero"/><path fill="#f3ca52" d="M 202.734375 175.726562 C 202.738281 175.75 202.746094 175.773438 202.75 175.796875 C 202.757812 175.832031 202.765625 175.863281 202.777344 175.898438 C 202.765625 175.84375 202.75 175.785156 202.734375 175.726562 Z M 202.734375 175.726562 " fill-opacity="1" fill-rule="nonzero"/><path fill="#f3ca52" d="M 203.03125 176.746094 C 203.035156 176.753906 203.039062 176.757812 203.042969 176.769531 C 203.03125 176.738281 203.019531 176.707031 203.011719 176.675781 C 203.019531 176.699219 203.027344 176.722656 203.03125 176.746094 Z M 203.03125 176.746094 " fill-opacity="1" fill-rule="nonzero"/><path fill="#7aba78" d="M 226.996094 172.605469 C 226.996094 172.691406 226.992188 172.761719 226.992188 172.84375 C 226.992188 172.914062 226.992188 172.984375 226.988281 173.054688 C 226.984375 173.152344 226.980469 173.242188 226.972656 173.339844 C 226.972656 173.378906 226.972656 173.429688 226.964844 173.472656 C 226.960938 173.574219 226.953125 173.675781 226.941406 173.773438 C 226.925781 173.898438 226.917969 174.035156 226.902344 174.15625 C 226.886719 174.269531 226.871094 174.382812 226.859375 174.496094 C 226.859375 174.503906 226.855469 174.511719 226.855469 174.519531 C 226.851562 174.535156 226.851562 174.542969 226.851562 174.554688 C 226.847656 174.558594 226.847656 174.566406 226.847656 174.574219 C 226.832031 174.691406 226.808594 174.804688 226.789062 174.917969 C 226.785156 174.945312 226.777344 174.976562 226.769531 175.007812 C 226.757812 175.078125 226.746094 175.152344 226.730469 175.21875 C 226.726562 175.242188 226.722656 175.261719 226.714844 175.285156 C 226.6875 175.410156 226.660156 175.53125 226.628906 175.652344 C 226.597656 175.792969 226.5625 175.929688 226.527344 176.066406 C 226.511719 176.109375 226.5 176.15625 226.484375 176.203125 C 226.476562 176.230469 226.472656 176.257812 226.457031 176.289062 C 226.445312 176.324219 226.4375 176.351562 226.429688 176.378906 C 226.414062 176.4375 226.394531 176.492188 226.375 176.542969 C 226.363281 176.605469 226.34375 176.65625 226.320312 176.714844 C 226.3125 176.734375 226.308594 176.753906 226.300781 176.769531 C 226.277344 176.855469 226.25 176.929688 226.222656 177.007812 C 226.210938 177.035156 226.203125 177.0625 226.191406 177.089844 C 226.148438 177.203125 226.105469 177.308594 226.054688 177.425781 C 226.011719 177.542969 225.960938 177.652344 225.910156 177.773438 C 225.863281 177.882812 225.8125 178 225.761719 178.105469 C 225.703125 178.21875 225.652344 178.328125 225.597656 178.429688 C 225.535156 178.550781 225.472656 178.671875 225.410156 178.789062 C 225.367188 178.871094 225.316406 178.953125 225.269531 179.027344 C 225.25 179.066406 225.230469 179.101562 225.207031 179.136719 C 225.203125 179.144531 225.203125 179.144531 225.203125 179.144531 C 225.136719 179.257812 225.0625 179.375 224.992188 179.484375 C 224.988281 179.488281 224.988281 179.496094 224.984375 179.5 C 224.914062 179.609375 224.835938 179.714844 224.765625 179.820312 C 224.765625 179.835938 224.761719 179.835938 224.761719 179.835938 C 224.691406 179.933594 224.621094 180.039062 224.542969 180.140625 C 224.527344 180.160156 224.515625 180.179688 224.5 180.199219 C 224.433594 180.285156 224.367188 180.375 224.296875 180.460938 C 224.285156 180.480469 224.273438 180.496094 224.261719 180.507812 C 224.195312 180.589844 224.140625 180.667969 224.070312 180.746094 C 223.96875 180.871094 223.863281 180.992188 223.761719 181.109375 C 223.667969 181.207031 223.578125 181.304688 223.484375 181.398438 L 223.480469 181.40625 C 223.378906 181.515625 223.277344 181.621094 223.171875 181.722656 C 223.164062 181.730469 223.160156 181.734375 223.15625 181.742188 C 223.070312 181.816406 222.984375 181.898438 222.90625 181.96875 C 222.832031 182.039062 222.761719 182.101562 222.6875 182.164062 C 222.640625 182.210938 222.585938 182.257812 222.535156 182.296875 C 222.496094 182.324219 222.464844 182.363281 222.425781 182.386719 C 222.375 182.429688 222.320312 182.46875 222.273438 182.519531 C 222.195312 182.578125 222.113281 182.636719 222.035156 182.699219 C 221.980469 182.746094 221.921875 182.785156 221.859375 182.828125 C 221.789062 182.882812 221.710938 182.9375 221.628906 182.988281 C 221.480469 183.101562 221.320312 183.203125 221.167969 183.304688 C 221.085938 183.351562 221.003906 183.402344 220.929688 183.453125 C 220.847656 183.503906 220.765625 183.546875 220.691406 183.589844 C 220.644531 183.613281 220.601562 183.644531 220.558594 183.667969 C 220.460938 183.722656 220.359375 183.78125 220.253906 183.828125 C 220.246094 183.832031 220.234375 183.84375 220.226562 183.84375 C 220.183594 183.867188 220.132812 183.894531 220.089844 183.914062 C 220.027344 183.945312 219.972656 183.96875 219.917969 184.003906 C 219.90625 184.007812 219.894531 184.015625 219.886719 184.019531 C 219.875 184.023438 219.867188 184.027344 219.855469 184.03125 C 219.78125 184.066406 219.710938 184.097656 219.628906 184.132812 C 219.570312 184.160156 219.511719 184.1875 219.453125 184.210938 C 219.351562 184.257812 219.25 184.296875 219.144531 184.34375 C 219.066406 184.375 218.988281 184.40625 218.90625 184.433594 C 218.878906 184.445312 218.851562 184.453125 218.824219 184.464844 C 218.789062 184.472656 218.761719 184.484375 218.734375 184.496094 C 218.734375 184.496094 218.730469 184.496094 218.730469 184.5 C 218.71875 184.503906 218.714844 184.507812 218.703125 184.511719 C 218.703125 184.511719 218.703125 184.511719 218.699219 184.511719 C 218.679688 184.519531 218.660156 184.523438 218.640625 184.53125 C 218.632812 184.53125 218.628906 184.53125 218.625 184.535156 C 218.601562 184.542969 218.574219 184.554688 218.542969 184.5625 C 218.496094 184.578125 218.445312 184.59375 218.390625 184.613281 C 218.300781 184.640625 218.210938 184.671875 218.121094 184.695312 C 215.632812 181.3125 214.164062 177.132812 214.164062 172.609375 C 214.164062 169.40625 214.902344 166.375 216.21875 163.675781 C 213.5 167.671875 211.910156 172.5 211.910156 177.699219 C 211.910156 180.273438 212.300781 182.757812 213.023438 185.09375 C 213.039062 185.097656 213.054688 185.097656 213.066406 185.101562 C 213.054688 185.097656 213.039062 185.097656 213.023438 185.097656 C 213.015625 185.09375 213.007812 185.09375 212.996094 185.09375 C 212.992188 185.09375 212.984375 185.089844 212.976562 185.089844 C 212.972656 185.089844 212.964844 185.085938 212.960938 185.085938 C 212.949219 185.085938 212.941406 185.082031 212.933594 185.082031 C 212.925781 185.082031 212.917969 185.082031 212.910156 185.082031 C 212.902344 185.078125 212.890625 185.074219 212.878906 185.074219 C 212.875 185.074219 212.867188 185.074219 212.859375 185.074219 C 212.769531 185.058594 212.675781 185.042969 212.582031 185.03125 C 212.570312 185.027344 212.5625 185.027344 212.554688 185.027344 C 212.546875 185.023438 212.539062 185.023438 212.53125 185.023438 C 212.511719 185.019531 212.492188 185.011719 212.472656 185.007812 C 212.457031 185.007812 212.441406 185.003906 212.425781 185 C 212.386719 184.992188 212.351562 184.984375 212.3125 184.976562 C 212.289062 184.972656 212.265625 184.96875 212.234375 184.964844 C 212.234375 184.960938 212.230469 184.960938 212.230469 184.960938 C 212.207031 184.957031 212.183594 184.953125 212.160156 184.949219 C 212.152344 184.945312 212.144531 184.945312 212.136719 184.945312 C 212.128906 184.941406 212.117188 184.941406 212.109375 184.9375 C 212.105469 184.9375 212.101562 184.9375 212.09375 184.933594 C 212.085938 184.929688 212.078125 184.929688 212.066406 184.921875 C 212.050781 184.921875 212.039062 184.921875 212.027344 184.917969 C 212.015625 184.917969 212.007812 184.917969 212 184.914062 C 211.96875 184.910156 211.933594 184.902344 211.90625 184.894531 C 211.882812 184.890625 211.859375 184.882812 211.839844 184.878906 C 211.832031 184.875 211.824219 184.871094 211.8125 184.867188 C 211.789062 184.863281 211.769531 184.855469 211.742188 184.851562 C 211.738281 184.851562 211.734375 184.851562 211.726562 184.851562 C 211.722656 184.847656 211.71875 184.847656 211.714844 184.847656 C 211.710938 184.847656 211.703125 184.847656 211.699219 184.84375 C 211.695312 184.84375 211.691406 184.839844 211.6875 184.839844 C 211.667969 184.835938 211.652344 184.832031 211.632812 184.828125 C 211.59375 184.816406 211.554688 184.808594 211.519531 184.800781 C 211.472656 184.789062 211.433594 184.777344 211.386719 184.761719 C 211.382812 184.761719 211.382812 184.757812 211.375 184.757812 C 211.367188 184.753906 211.355469 184.75 211.34375 184.746094 C 211.273438 184.726562 211.203125 184.707031 211.132812 184.6875 C 211.128906 184.6875 211.125 184.683594 211.125 184.683594 C 211.050781 184.664062 210.976562 184.640625 210.90625 184.617188 C 210.878906 184.605469 210.851562 184.597656 210.824219 184.589844 C 210.796875 184.582031 210.769531 184.574219 210.742188 184.5625 C 210.71875 184.558594 210.691406 184.546875 210.667969 184.539062 C 210.65625 184.535156 210.644531 184.527344 210.632812 184.523438 C 210.617188 184.519531 210.605469 184.515625 210.59375 184.515625 C 210.582031 184.507812 210.574219 184.503906 210.5625 184.5 C 210.5625 184.5 210.558594 184.5 210.554688 184.496094 C 210.53125 184.484375 210.503906 184.476562 210.472656 184.464844 C 210.445312 184.457031 210.417969 184.449219 210.390625 184.4375 C 210.308594 184.410156 210.230469 184.378906 210.148438 184.34375 C 210.046875 184.300781 209.945312 184.261719 209.84375 184.210938 C 209.785156 184.1875 209.722656 184.164062 209.667969 184.132812 C 209.585938 184.101562 209.507812 184.066406 209.4375 184.035156 C 209.433594 184.03125 209.429688 184.03125 209.425781 184.027344 C 209.414062 184.023438 209.390625 184.015625 209.375 184.003906 C 209.320312 183.96875 209.261719 183.945312 209.203125 183.917969 C 209.164062 183.898438 209.109375 183.871094 209.066406 183.84375 C 209.058594 183.84375 209.046875 183.835938 209.039062 183.832031 C 208.9375 183.78125 208.832031 183.722656 208.734375 183.671875 C 208.691406 183.648438 208.644531 183.617188 208.601562 183.59375 C 208.558594 183.570312 208.523438 183.550781 208.484375 183.527344 C 208.445312 183.503906 208.40625 183.480469 208.371094 183.457031 C 208.289062 183.40625 208.207031 183.355469 208.125 183.304688 C 207.96875 183.207031 207.8125 183.101562 207.65625 182.992188 C 207.585938 182.9375 207.503906 182.882812 207.433594 182.828125 C 207.371094 182.789062 207.320312 182.75 207.257812 182.699219 L 207.070312 182.558594 L 207.019531 182.523438 C 207.015625 182.519531 207.015625 182.511719 207.007812 182.511719 C 207.003906 182.507812 207 182.503906 206.996094 182.5 C 206.957031 182.460938 206.910156 182.425781 206.867188 182.390625 C 206.835938 182.363281 206.792969 182.328125 206.757812 182.296875 C 206.734375 182.28125 206.707031 182.257812 206.679688 182.234375 C 206.65625 182.210938 206.628906 182.1875 206.605469 182.167969 C 206.589844 182.15625 206.578125 182.144531 206.5625 182.128906 C 206.523438 182.097656 206.484375 182.058594 206.445312 182.023438 C 206.425781 182.007812 206.40625 181.988281 206.390625 181.972656 C 206.375 181.960938 206.359375 181.945312 206.34375 181.933594 C 206.269531 181.867188 206.203125 181.792969 206.128906 181.726562 C 206.121094 181.71875 206.113281 181.710938 206.105469 181.707031 C 206.046875 181.648438 205.988281 181.589844 205.929688 181.53125 C 205.921875 181.527344 205.917969 181.519531 205.914062 181.515625 C 205.882812 181.480469 205.847656 181.445312 205.8125 181.40625 L 205.808594 181.402344 L 205.804688 181.402344 C 205.789062 181.382812 205.769531 181.363281 205.753906 181.34375 C 205.726562 181.316406 205.699219 181.285156 205.671875 181.257812 C 205.652344 181.238281 205.632812 181.21875 205.613281 181.199219 C 205.601562 181.183594 205.589844 181.167969 205.574219 181.15625 C 205.5625 181.140625 205.546875 181.125 205.53125 181.109375 C 205.515625 181.089844 205.496094 181.070312 205.476562 181.046875 C 205.429688 180.992188 205.382812 180.941406 205.339844 180.886719 C 205.300781 180.84375 205.261719 180.792969 205.222656 180.746094 L 205.183594 180.703125 C 205.179688 180.699219 205.175781 180.695312 205.171875 180.6875 C 205.144531 180.652344 205.113281 180.617188 205.082031 180.582031 C 205.066406 180.558594 205.046875 180.535156 205.03125 180.511719 C 205.023438 180.503906 205.019531 180.496094 205.011719 180.488281 C 205.007812 180.480469 205.003906 180.472656 204.996094 180.460938 C 204.960938 180.421875 204.929688 180.378906 204.890625 180.332031 C 204.863281 180.289062 204.828125 180.246094 204.796875 180.207031 C 204.792969 180.203125 204.792969 180.203125 204.792969 180.203125 C 204.777344 180.183594 204.765625 180.164062 204.75 180.144531 C 204.710938 180.09375 204.675781 180.042969 204.640625 179.992188 C 204.605469 179.941406 204.574219 179.890625 204.535156 179.839844 C 204.535156 179.839844 204.53125 179.839844 204.53125 179.839844 C 204.53125 179.835938 204.527344 179.835938 204.527344 179.832031 C 204.527344 179.832031 204.527344 179.828125 204.527344 179.824219 C 204.453125 179.71875 204.382812 179.613281 204.3125 179.503906 C 204.3125 179.503906 204.308594 179.5 204.308594 179.5 C 204.304688 179.496094 204.304688 179.496094 204.304688 179.496094 C 204.304688 179.492188 204.304688 179.492188 204.304688 179.488281 C 204.234375 179.378906 204.164062 179.261719 204.09375 179.148438 C 204.089844 179.148438 204.089844 179.148438 204.089844 179.148438 C 204.089844 179.148438 204.089844 179.148438 204.089844 179.140625 C 204.089844 179.140625 204.089844 179.140625 204.085938 179.140625 C 204.070312 179.117188 204.058594 179.089844 204.042969 179.070312 C 204.035156 179.058594 204.03125 179.042969 204.023438 179.03125 C 204.003906 178.992188 203.980469 178.953125 203.957031 178.914062 C 203.953125 178.910156 203.949219 178.902344 203.945312 178.898438 C 203.921875 178.863281 203.90625 178.828125 203.882812 178.792969 C 203.84375 178.722656 203.808594 178.652344 203.769531 178.578125 C 203.746094 178.527344 203.722656 178.480469 203.695312 178.433594 C 203.683594 178.40625 203.671875 178.382812 203.65625 178.355469 C 203.621094 178.285156 203.582031 178.203125 203.542969 178.128906 C 203.539062 178.121094 203.535156 178.117188 203.53125 178.109375 C 203.503906 178.042969 203.472656 177.980469 203.441406 177.917969 C 203.421875 177.871094 203.402344 177.820312 203.382812 177.777344 C 203.355469 177.714844 203.328125 177.65625 203.304688 177.597656 C 203.28125 177.542969 203.261719 177.488281 203.238281 177.429688 C 203.226562 177.402344 203.214844 177.375 203.203125 177.34375 C 203.199219 177.335938 203.191406 177.328125 203.1875 177.316406 C 203.164062 177.257812 203.144531 177.199219 203.121094 177.140625 C 203.113281 177.125 203.109375 177.109375 203.105469 177.09375 C 203.09375 177.066406 203.085938 177.039062 203.074219 177.011719 C 203.0625 176.984375 203.050781 176.949219 203.039062 176.921875 C 203.023438 176.875 203.007812 176.824219 202.992188 176.773438 C 202.988281 176.765625 202.984375 176.757812 202.980469 176.746094 C 202.976562 176.738281 202.972656 176.730469 202.972656 176.71875 C 202.964844 176.703125 202.960938 176.6875 202.957031 176.675781 C 202.945312 176.648438 202.9375 176.621094 202.929688 176.59375 C 202.925781 176.582031 202.921875 176.566406 202.917969 176.550781 C 202.898438 176.496094 202.882812 176.445312 202.863281 176.382812 C 202.855469 176.355469 202.84375 176.328125 202.835938 176.292969 L 202.808594 176.207031 C 202.796875 176.175781 202.789062 176.140625 202.78125 176.109375 C 202.773438 176.078125 202.765625 176.042969 202.753906 176.011719 C 202.746094 175.988281 202.738281 175.960938 202.734375 175.933594 C 202.710938 175.84375 202.6875 175.75 202.664062 175.65625 C 202.652344 175.613281 202.644531 175.574219 202.632812 175.53125 C 202.617188 175.460938 202.601562 175.386719 202.585938 175.3125 C 202.582031 175.304688 202.578125 175.296875 202.578125 175.289062 C 202.574219 175.265625 202.566406 175.246094 202.5625 175.222656 C 202.550781 175.15625 202.535156 175.085938 202.523438 175.015625 C 202.523438 175.015625 202.523438 175.015625 202.523438 175.011719 C 202.519531 174.980469 202.511719 174.949219 202.507812 174.921875 C 202.503906 174.910156 202.503906 174.902344 202.5 174.890625 C 202.480469 174.789062 202.460938 174.683594 202.445312 174.578125 C 202.441406 174.5625 202.441406 174.546875 202.441406 174.523438 C 202.4375 174.488281 202.429688 174.453125 202.425781 174.421875 C 202.417969 174.363281 202.410156 174.308594 202.402344 174.25 C 202.402344 174.242188 202.398438 174.226562 202.398438 174.21875 C 202.394531 174.199219 202.394531 174.179688 202.394531 174.160156 C 202.386719 174.128906 202.386719 174.097656 202.378906 174.066406 C 202.375 174.035156 202.375 174.003906 202.371094 173.972656 C 202.363281 173.90625 202.359375 173.839844 202.355469 173.777344 C 202.351562 173.757812 202.347656 173.734375 202.347656 173.710938 C 202.34375 173.710938 202.34375 173.707031 202.34375 173.703125 C 202.335938 173.628906 202.332031 173.550781 202.324219 173.476562 C 202.320312 173.433594 202.316406 173.386719 202.316406 173.34375 C 202.316406 173.320312 202.316406 173.296875 202.3125 173.273438 C 202.3125 173.253906 202.3125 173.238281 202.3125 173.222656 C 202.3125 173.214844 202.3125 173.210938 202.3125 173.203125 C 202.308594 173.1875 202.308594 173.175781 202.308594 173.160156 C 202.308594 173.148438 202.308594 173.140625 202.308594 173.132812 C 202.304688 173.109375 202.304688 173.085938 202.304688 173.0625 C 202.304688 172.988281 202.296875 172.921875 202.296875 172.851562 L 202.296875 172.304688 C 202.304688 172.226562 202.304688 172.164062 202.308594 172.085938 C 202.308594 172.015625 202.3125 171.949219 202.320312 171.878906 C 202.320312 171.832031 202.324219 171.78125 202.328125 171.730469 C 202.332031 171.628906 202.339844 171.527344 202.355469 171.425781 C 202.355469 171.417969 202.355469 171.410156 202.355469 171.40625 C 202.355469 171.394531 202.359375 171.382812 202.359375 171.371094 C 202.363281 171.351562 202.363281 171.332031 202.363281 171.3125 C 202.371094 171.257812 202.375 171.207031 202.382812 171.152344 C 202.382812 171.144531 202.382812 171.132812 202.386719 171.125 C 202.386719 171.109375 202.386719 171.09375 202.390625 171.078125 C 202.390625 171.0625 202.390625 171.050781 202.394531 171.039062 C 202.402344 170.957031 202.414062 170.871094 202.421875 170.800781 C 202.4375 170.71875 202.445312 170.640625 202.460938 170.5625 C 202.464844 170.550781 202.464844 170.539062 202.46875 170.523438 C 202.476562 170.472656 202.484375 170.417969 202.496094 170.367188 C 202.507812 170.300781 202.519531 170.238281 202.53125 170.175781 C 202.53125 170.171875 202.53125 170.164062 202.535156 170.160156 C 202.535156 170.15625 202.535156 170.152344 202.539062 170.144531 C 202.539062 170.140625 202.539062 170.136719 202.539062 170.128906 C 202.554688 170.023438 202.578125 169.917969 202.605469 169.8125 C 202.609375 169.800781 202.613281 169.785156 202.617188 169.773438 C 202.617188 169.769531 202.617188 169.765625 202.617188 169.761719 C 202.617188 169.761719 202.617188 169.757812 202.617188 169.757812 C 202.617188 169.75 202.621094 169.742188 202.621094 169.738281 C 202.625 169.726562 202.628906 169.714844 202.628906 169.707031 C 202.632812 169.695312 202.632812 169.6875 202.636719 169.675781 C 202.640625 169.667969 202.640625 169.660156 202.640625 169.652344 C 202.644531 169.644531 202.648438 169.632812 202.648438 169.621094 C 202.664062 169.570312 202.675781 169.515625 202.691406 169.464844 C 202.695312 169.4375 202.703125 169.410156 202.707031 169.382812 C 202.710938 169.375 202.710938 169.363281 202.714844 169.355469 C 202.71875 169.347656 202.71875 169.339844 202.722656 169.332031 C 202.742188 169.269531 202.757812 169.210938 202.773438 169.148438 C 202.785156 169.097656 202.800781 169.046875 202.8125 168.992188 C 202.820312 168.96875 202.832031 168.941406 202.839844 168.914062 C 202.84375 168.90625 202.84375 168.902344 202.847656 168.894531 C 202.855469 168.871094 202.863281 168.851562 202.871094 168.828125 C 202.875 168.800781 202.886719 168.769531 202.894531 168.742188 C 202.902344 168.710938 202.914062 168.683594 202.921875 168.65625 C 202.921875 168.652344 202.921875 168.648438 202.925781 168.648438 C 202.925781 168.636719 202.929688 168.628906 202.933594 168.621094 C 202.941406 168.597656 202.949219 168.570312 202.957031 168.546875 C 202.964844 168.527344 202.972656 168.503906 202.976562 168.484375 C 202.980469 168.472656 202.984375 168.460938 202.988281 168.445312 C 203.003906 168.40625 203.019531 168.363281 203.03125 168.324219 C 203.035156 168.3125 203.042969 168.296875 203.046875 168.285156 C 203.046875 168.277344 203.050781 168.269531 203.054688 168.265625 C 203.054688 168.261719 203.058594 168.257812 203.058594 168.25 C 203.0625 168.234375 203.070312 168.222656 203.074219 168.207031 C 203.074219 168.207031 203.074219 168.203125 203.078125 168.203125 C 203.078125 168.191406 203.082031 168.179688 203.089844 168.167969 C 203.089844 168.164062 203.089844 168.160156 203.09375 168.15625 C 203.09375 168.15625 203.097656 168.152344 203.097656 168.148438 C 203.101562 168.132812 203.105469 168.125 203.113281 168.101562 C 203.117188 168.085938 203.125 168.074219 203.128906 168.058594 C 203.132812 168.054688 203.136719 168.046875 203.136719 168.042969 C 203.144531 168.03125 203.148438 168.019531 203.152344 168.007812 C 203.167969 167.960938 203.183594 167.917969 203.203125 167.871094 C 203.207031 167.859375 203.210938 167.847656 203.214844 167.839844 C 203.226562 167.820312 203.234375 167.800781 203.242188 167.78125 C 203.253906 167.753906 203.261719 167.726562 203.273438 167.703125 C 203.28125 167.675781 203.292969 167.648438 203.304688 167.621094 C 203.335938 167.546875 203.371094 167.464844 203.40625 167.394531 C 203.433594 167.320312 203.472656 167.257812 203.5 167.183594 C 203.507812 167.171875 203.515625 167.152344 203.527344 167.132812 C 203.621094 166.949219 203.828125 166.625 203.976562 166.402344 C 204.050781 166.289062 204.109375 166.203125 204.132812 166.171875 L 205.457031 164.445312 L 205.550781 164.324219 L 205.609375 164.25 L 206.226562 163.464844 L 206.285156 163.390625 L 206.285156 163.386719 L 206.429688 163.210938 L 206.773438 162.773438 L 206.84375 162.683594 C 206.847656 162.675781 206.847656 162.675781 206.847656 162.671875 L 206.863281 162.652344 L 207.898438 161.335938 L 207.988281 161.226562 L 208.113281 161.070312 L 208.21875 160.9375 L 208.425781 160.667969 L 208.539062 160.523438 L 209.164062 159.730469 L 209.253906 159.609375 L 209.652344 159.105469 L 210.300781 158.28125 L 211.203125 157.136719 L 211.65625 156.554688 L 211.976562 156.148438 L 212.253906 155.8125 L 212.453125 155.546875 L 212.734375 155.1875 L 212.820312 155.082031 L 214.507812 152.9375 L 214.640625 152.769531 L 214.644531 152.769531 L 214.777344 152.9375 L 216.464844 155.082031 L 216.496094 155.117188 L 216.832031 155.546875 L 217.039062 155.8125 L 217.3125 156.148438 L 217.628906 156.554688 L 218.089844 157.136719 L 218.984375 158.28125 L 219.460938 158.886719 L 219.632812 159.105469 L 219.875 159.410156 L 220.03125 159.609375 L 220.121094 159.730469 L 220.746094 160.523438 L 220.863281 160.667969 L 221.070312 160.9375 L 221.175781 161.070312 L 221.304688 161.226562 L 221.386719 161.335938 L 222.421875 162.652344 L 222.4375 162.671875 C 222.441406 162.675781 222.441406 162.675781 222.449219 162.683594 L 222.515625 162.773438 L 222.664062 162.960938 L 222.851562 163.195312 L 223.683594 164.25 L 223.734375 164.324219 L 223.832031 164.445312 L 225.15625 166.171875 C 225.226562 166.265625 225.671875 166.945312 225.789062 167.1875 C 225.820312 167.257812 225.855469 167.324219 225.882812 167.394531 C 225.914062 167.464844 225.949219 167.550781 225.980469 167.621094 C 226.007812 167.675781 226.03125 167.726562 226.046875 167.78125 C 226.082031 167.867188 226.121094 167.953125 226.148438 168.042969 C 226.15625 168.058594 226.164062 168.078125 226.175781 168.09375 C 226.175781 168.097656 226.175781 168.097656 226.175781 168.101562 C 226.175781 168.101562 226.179688 168.105469 226.179688 168.105469 C 226.183594 168.125 226.1875 168.136719 226.191406 168.148438 C 226.195312 168.15625 226.195312 168.164062 226.199219 168.167969 C 226.199219 168.171875 226.203125 168.175781 226.207031 168.179688 C 226.210938 168.195312 226.21875 168.210938 226.222656 168.226562 C 226.226562 168.238281 226.226562 168.242188 226.226562 168.253906 C 226.238281 168.277344 226.246094 168.300781 226.257812 168.324219 C 226.292969 168.433594 226.332031 168.542969 226.367188 168.65625 C 226.386719 168.710938 226.40625 168.769531 226.421875 168.828125 C 226.429688 168.851562 226.4375 168.875 226.445312 168.898438 C 226.445312 168.902344 226.449219 168.90625 226.449219 168.914062 C 226.457031 168.941406 226.46875 168.96875 226.476562 168.992188 C 226.480469 169.019531 226.492188 169.046875 226.496094 169.070312 C 226.5 169.089844 226.507812 169.113281 226.515625 169.128906 C 226.53125 169.195312 226.546875 169.257812 226.566406 169.324219 C 226.570312 169.332031 226.570312 169.339844 226.574219 169.34375 C 226.578125 169.355469 226.582031 169.371094 226.585938 169.382812 C 226.589844 169.40625 226.59375 169.425781 226.597656 169.449219 C 226.613281 169.503906 226.628906 169.5625 226.640625 169.621094 C 226.644531 169.644531 226.652344 169.664062 226.65625 169.683594 C 226.660156 169.703125 226.664062 169.71875 226.667969 169.738281 C 226.671875 169.75 226.671875 169.761719 226.675781 169.773438 C 226.703125 169.894531 226.734375 170.019531 226.75 170.144531 C 226.753906 170.152344 226.753906 170.164062 226.761719 170.171875 C 226.785156 170.300781 226.804688 170.429688 226.828125 170.5625 C 226.835938 170.601562 226.84375 170.640625 226.847656 170.675781 C 226.855469 170.71875 226.863281 170.757812 226.867188 170.796875 C 226.875 170.871094 226.882812 170.953125 226.894531 171.035156 C 226.898438 171.0625 226.902344 171.089844 226.902344 171.121094 C 226.914062 171.207031 226.921875 171.289062 226.929688 171.371094 C 226.9375 171.425781 226.945312 171.488281 226.949219 171.546875 C 226.957031 171.609375 226.957031 171.667969 226.960938 171.726562 C 226.964844 171.78125 226.96875 171.832031 226.96875 171.878906 C 226.976562 171.945312 226.980469 172.011719 226.980469 172.085938 C 226.980469 172.121094 226.984375 172.15625 226.984375 172.195312 C 226.988281 172.230469 226.988281 172.265625 226.988281 172.304688 C 226.992188 172.398438 226.996094 172.503906 226.996094 172.605469 Z M 226.996094 172.605469 " fill-opacity="1" fill-rule="evenodd"/><g fill="#f3ca52" fill-opacity="1"><g transform="translate(236.52103, 185.650343)"><g><path d="M 20.734375 13.589844 C 30.625 13.589844 37.066406 7.464844 37.066406 -1.914062 L 37.066406 -33.113281 L 32.664062 -33.113281 L 32.089844 -28.644531 C 29.15625 -31.964844 24.816406 -33.941406 19.84375 -33.941406 C 10.398438 -33.941406 3.316406 -26.796875 3.316406 -17.164062 C 3.316406 -7.464844 10.398438 -0.320312 19.84375 -0.320312 C 24.625 -0.320312 28.773438 -2.167969 31.707031 -5.230469 L 31.707031 -2.105469 C 31.707031 4.722656 27.6875 8.613281 20.734375 8.613281 C 15.3125 8.613281 11.546875 6.125 10.527344 2.105469 L 5.105469 2.105469 C 6.316406 9.1875 12.3125 13.589844 20.734375 13.589844 Z M 8.675781 -17.164062 C 8.675781 -23.925781 13.589844 -28.773438 20.417969 -28.773438 C 27.304688 -28.773438 32.15625 -23.925781 32.15625 -17.164062 C 32.15625 -10.335938 27.304688 -5.550781 20.417969 -5.550781 C 13.589844 -5.550781 8.675781 -10.335938 8.675781 -17.164062 Z M 8.675781 -17.164062 "/></g></g></g><g fill="#f3ca52" fill-opacity="1"><g transform="translate(274.603822, 185.650343)"><g><path d="M 5.933594 0 L 11.292969 0 L 11.292969 -15.375 C 11.292969 -24.816406 16.015625 -28.136719 22.011719 -28.136719 L 25.265625 -28.136719 L 25.265625 -33.113281 L 22.265625 -33.113281 C 16.652344 -33.113281 13.335938 -31.324219 10.972656 -27.371094 L 10.335938 -33.113281 L 5.933594 -33.113281 Z M 5.933594 0 "/></g></g></g><g fill="#f3ca52" fill-opacity="1"><g transform="translate(297.504088, 185.650343)"><g><path d="M 5.933594 0 L 11.292969 0 L 11.292969 -33.113281 L 5.933594 -33.113281 Z M 4.273438 -42.746094 C 4.273438 -40.386719 5.996094 -38.597656 8.613281 -38.597656 C 11.230469 -38.597656 12.886719 -40.386719 12.886719 -42.746094 C 12.886719 -45.171875 11.230469 -46.957031 8.613281 -46.957031 C 5.996094 -46.957031 4.273438 -45.171875 4.273438 -42.746094 Z M 4.273438 -42.746094 "/></g></g></g><g fill="#7aba78" fill-opacity="1"><g transform="translate(104.444001, 236.101904)"><g><path d="M 20.324219 0.808594 C 30.332031 0.808594 37.414062 -6.277344 37.414062 -16.160156 C 37.414062 -26.042969 30.332031 -33.066406 20.324219 -33.066406 C 10.316406 -33.066406 3.230469 -26.042969 3.230469 -16.160156 C 3.230469 -6.277344 10.316406 0.808594 20.324219 0.808594 Z M 8.453125 -16.160156 C 8.453125 -23.183594 13.363281 -28.09375 20.324219 -28.09375 C 27.285156 -28.09375 32.195312 -23.183594 32.195312 -16.160156 C 32.195312 -9.074219 27.285156 -4.226562 20.324219 -4.226562 C 13.363281 -4.226562 8.453125 -9.074219 8.453125 -16.160156 Z M 8.453125 -16.160156 "/></g></g></g><g fill="#7aba78" fill-opacity="1"><g transform="translate(140.673224, 236.101904)"><g><path d="M 5.78125 0 L 11 0 L 11 -16.285156 C 11 -23.371094 15.289062 -28.09375 21.316406 -28.09375 C 26.972656 -28.09375 30.453125 -23.992188 30.453125 -17.464844 L 30.453125 0 L 35.675781 0 L 35.675781 -17.960938 C 35.675781 -27.160156 30.578125 -33.066406 22.003906 -33.066406 C 17.652344 -33.066406 13.425781 -31.386719 10.628906 -27.535156 L 10.070312 -32.257812 L 5.78125 -32.257812 Z M 5.78125 0 "/></g></g></g><g fill="#7aba78" fill-opacity="1"><g transform="translate(177.088882, 236.101904)"><g><path d="M 5.78125 0 L 11 0 L 11 -16.285156 C 11 -23.371094 15.289062 -28.09375 21.316406 -28.09375 C 26.972656 -28.09375 30.453125 -23.992188 30.453125 -17.464844 L 30.453125 0 L 35.675781 0 L 35.675781 -17.960938 C 35.675781 -27.160156 30.578125 -33.066406 22.003906 -33.066406 C 17.652344 -33.066406 13.425781 -31.386719 10.628906 -27.535156 L 10.070312 -32.257812 L 5.78125 -32.257812 Z M 5.78125 0 "/></g></g></g><g fill="#7aba78" fill-opacity="1"><g transform="translate(213.504541, 236.101904)"><g><path d="M 19.765625 0.808594 C 27.035156 0.808594 33.003906 -3.109375 35.613281 -9.386719 L 29.707031 -9.386719 C 27.71875 -5.964844 24.054688 -4.101562 19.828125 -4.101562 C 13.671875 -4.101562 9.324219 -7.957031 8.515625 -14.046875 L 36.421875 -14.046875 C 36.792969 -25.296875 30.144531 -33.066406 19.828125 -33.066406 C 10.070312 -33.066406 3.230469 -26.105469 3.230469 -16.160156 C 3.230469 -6.152344 10.007812 0.808594 19.765625 0.808594 Z M 8.578125 -18.644531 C 9.507812 -24.363281 13.859375 -28.15625 19.828125 -28.15625 C 25.730469 -28.15625 30.082031 -24.550781 31.199219 -18.644531 Z M 8.578125 -18.644531 "/></g></g></g><g fill="#7aba78" fill-opacity="1"><g transform="translate(248.61516, 236.101904)"><g><path d="M 19.828125 0.808594 C 27.90625 0.808594 34.183594 -4.039062 36.359375 -11.871094 L 30.828125 -11.871094 C 29.210938 -7.210938 25.046875 -4.226562 19.828125 -4.226562 C 13.175781 -4.226562 8.453125 -9.136719 8.453125 -16.160156 C 8.453125 -23.121094 13.175781 -28.09375 19.828125 -28.09375 C 24.738281 -28.09375 28.777344 -25.421875 30.703125 -20.945312 L 35.984375 -20.945312 C 34.371094 -28.21875 27.84375 -33.066406 19.828125 -33.066406 C 10.128906 -33.066406 3.230469 -25.980469 3.230469 -16.160156 C 3.230469 -6.277344 10.128906 0.808594 19.828125 0.808594 Z M 19.828125 0.808594 "/></g></g></g><g fill="#7aba78" fill-opacity="1"><g transform="translate(283.601487, 236.101904)"><g><path d="M 19.703125 0 L 24.550781 0 L 24.550781 -5.035156 L 19.949219 -5.035156 C 15.664062 -5.035156 13.671875 -7.210938 13.671875 -11.871094 L 13.671875 -27.472656 L 24.113281 -27.472656 L 24.113281 -32.257812 L 13.671875 -32.257812 L 13.671875 -40.273438 L 9.632812 -40.273438 L 9.136719 -35.925781 C 8.761719 -33.003906 7.894531 -32.257812 4.910156 -32.257812 L 1.679688 -32.257812 L 1.679688 -27.472656 L 8.453125 -27.472656 L 8.453125 -11.621094 C 8.453125 -4.226562 12.554688 0 19.703125 0 Z M 19.703125 0 "/></g></g></g><path stroke-linecap="butt" transform="matrix(0.75, 0, 0, 0.75, 202.063542, 241.394559)" fill="none" stroke-linejoin="miter" d="M -0.00138884 2.999963 L 149.045496 2.999963 " stroke="#f3ca52" stroke-width="6" stroke-opacity="1" stroke-miterlimit="4"/><g clip-path="url(#bad29632bf)"><g clip-path="url(#f67d741aa8)"><g clip-path="url(#145faebf24)"><path fill="#404041" d="M 130.714844 218.621094 C 130.84375 218.996094 130.9375 219.382812 130.992188 219.773438 C 131.046875 220.167969 131.0625 220.5625 131.039062 220.960938 C 131.019531 221.355469 130.957031 221.746094 130.855469 222.128906 C 130.757812 222.515625 130.621094 222.886719 130.449219 223.242188 C 130.277344 223.597656 130.070312 223.9375 129.832031 224.253906 C 129.589844 224.570312 129.324219 224.859375 129.027344 225.125 C 128.730469 225.390625 128.410156 225.621094 128.070312 225.824219 C 127.726562 226.023438 127.367188 226.191406 126.992188 226.320312 C 126.617188 226.449219 126.234375 226.542969 125.84375 226.597656 C 125.449219 226.652344 125.054688 226.667969 124.65625 226.648438 C 124.261719 226.625 123.871094 226.5625 123.488281 226.460938 C 123.101562 226.363281 122.730469 226.226562 122.375 226.054688 C 122.015625 225.882812 121.679688 225.675781 121.363281 225.4375 C 121.046875 225.195312 120.757812 224.929688 120.492188 224.632812 C 120.226562 224.335938 119.996094 224.015625 119.792969 223.675781 C 119.59375 223.332031 119.425781 222.972656 119.296875 222.597656 C 119.167969 222.226562 119.074219 221.839844 119.019531 221.449219 C 118.964844 221.054688 118.949219 220.660156 118.96875 220.261719 C 118.992188 219.867188 119.054688 219.476562 119.152344 219.09375 C 119.253906 218.707031 119.390625 218.335938 119.5625 217.980469 C 119.734375 217.621094 119.941406 217.285156 120.179688 216.96875 C 120.417969 216.652344 120.6875 216.363281 120.984375 216.097656 C 121.28125 215.832031 121.601562 215.601562 121.941406 215.398438 C 122.285156 215.199219 122.640625 215.03125 123.015625 214.902344 C 123.390625 214.773438 123.777344 214.679688 124.167969 214.625 C 124.5625 214.570312 124.957031 214.554688 125.351562 214.574219 C 125.75 214.597656 126.140625 214.660156 126.523438 214.761719 C 126.910156 214.859375 127.277344 214.996094 127.636719 215.167969 C 127.992188 215.339844 128.332031 215.546875 128.648438 215.785156 C 128.964844 216.027344 129.253906 216.292969 129.519531 216.589844 C 129.785156 216.886719 130.015625 217.207031 130.21875 217.546875 C 130.417969 217.890625 130.585938 218.25 130.714844 218.621094 Z M 130.714844 218.621094 " fill-opacity="1" fill-rule="nonzero"/></g></g></g><g clip-path="url(#4ce171c03d)"><g clip-path="url(#c87dede542)"><g clip-path="url(#5d6f3d460e)"><path fill="#f6e9b2" d="M 88.746094 140.078125 L 87.773438 155.371094 C 91.480469 150.550781 97.863281 148.714844 103.542969 150.738281 C 101.375 157.496094 94.449219 161.582031 87.46875 160.164062 L 86.714844 172.035156 L 100.824219 188.425781 L 97.859375 190.960938 L 83.328125 174.082031 C 82.945312 173.699219 82.722656 173.160156 82.757812 172.574219 L 83.5625 159.917969 C 76.460938 160.4375 70.109375 155.507812 68.8125 148.53125 C 74.703125 147.242188 80.804688 149.875 83.867188 155.125 L 84.839844 139.828125 C 81.992188 135.757812 80.453125 130.730469 80.792969 125.386719 C 81.199219 119 84.210938 113.398438 88.726562 109.550781 C 96.59375 118.203125 96.609375 131.417969 88.746094 140.078125 Z M 145.835938 162.09375 C 143.675781 168.816406 136.816406 172.898438 129.855469 171.539062 L 129.195312 182.746094 L 125.304688 182.515625 L 125.96875 171.261719 C 118.828125 171.84375 112.40625 166.90625 111.101562 159.886719 C 117.054688 158.582031 123.210938 161.285156 126.242188 166.621094 L 127.390625 147.175781 C 120.289062 147.703125 113.933594 142.769531 112.632812 135.792969 C 118.511719 134.503906 124.605469 137.125 127.675781 142.359375 L 128.550781 127.523438 C 125.753906 123.46875 124.246094 118.484375 124.582031 113.1875 C 124.988281 106.796875 128 101.195312 132.515625 97.34375 C 136.507812 101.734375 138.785156 107.675781 138.378906 114.0625 C 138.035156 119.464844 135.828125 124.304688 132.425781 128 L 131.5625 142.679688 C 135.257812 137.828125 141.667969 135.96875 147.367188 138 C 145.195312 144.761719 138.261719 148.847656 131.28125 147.421875 L 130.148438 166.621094 C 133.871094 161.875 140.203125 160.085938 145.835938 162.09375 Z M 174.71875 115.011719 C 178.710938 119.402344 180.988281 125.339844 180.582031 131.730469 C 180.242188 137.078125 178.078125 141.871094 174.738281 145.550781 L 173.765625 160.839844 C 177.472656 156.019531 183.855469 154.179688 189.535156 156.207031 C 187.367188 162.960938 180.441406 167.046875 173.460938 165.628906 L 172.65625 178.289062 C 172.617188 178.875 172.328125 179.382812 171.902344 179.714844 L 155.347656 194.617188 L 152.730469 191.726562 L 168.800781 177.253906 L 169.554688 165.382812 C 162.453125 165.90625 156.101562 160.972656 154.804688 153.996094 C 160.695312 152.707031 166.796875 155.339844 169.859375 160.589844 L 170.832031 145.300781 C 167.984375 141.230469 166.445312 136.199219 166.785156 130.855469 C 167.191406 124.464844 170.203125 118.859375 174.71875 115.011719 Z M 174.71875 115.011719 " fill-opacity="1" fill-rule="evenodd"/></g></g></g><g clip-path="url(#485a0b5b7d)"><g clip-path="url(#4fd4760ef6)"><g clip-path="url(#60ba188825)"><path fill="#f3ca52" d="M 108.21875 207.589844 C 107.410156 208.304688 106.171875 208.226562 105.457031 207.417969 C 104.746094 206.605469 104.824219 205.367188 105.632812 204.65625 C 117.460938 194.242188 135.488281 195.386719 145.902344 207.214844 C 146.617188 208.027344 146.539062 209.261719 145.726562 209.976562 C 144.917969 210.6875 143.679688 210.609375 142.964844 209.800781 C 133.980469 199.59375 118.425781 198.605469 108.21875 207.589844 Z M 94.539062 195.71875 C 113.1875 179.296875 141.621094 181.105469 158.042969 199.753906 C 158.753906 200.566406 159.992188 200.644531 160.800781 199.929688 C 161.613281 199.214844 161.691406 197.980469 160.976562 197.167969 C 143.128906 176.894531 112.226562 174.933594 91.953125 192.78125 C 91.140625 193.496094 91.0625 194.730469 91.777344 195.542969 C 92.492188 196.351562 93.726562 196.429688 94.539062 195.71875 Z M 125.308594 213.171875 C 132.019531 213.597656 134.886719 221.96875 129.832031 226.417969 C 124.78125 230.867188 116.84375 226.960938 117.269531 220.25 C 117.535156 216.078125 121.132812 212.90625 125.308594 213.171875 Z M 127.578125 218.3125 C 125.425781 215.871094 121.378906 217.253906 121.171875 220.5 C 120.96875 223.746094 124.804688 225.628906 127.246094 223.480469 C 128.765625 222.144531 128.914062 219.828125 127.578125 218.3125 Z M 127.578125 218.3125 " fill-opacity="1" fill-rule="evenodd"/></g></g></g></svg>